<?xml version="1.0" encoding="UTF-8" standalone="no"?>
<?xml-stylesheet type="text/css" href="fonts.css" ?>
<svg xmlns:dc="http://purl.org/dc/elements/1.1/" xmlns:cc="http://creativecommons.org/ns#" xmlns:rdf="http://www.w3.org/1999/02/22-rdf-syntax-ns#" xmlns:svg="http://www.w3.org/2000/svg" xmlns="http://www.w3.org/2000/svg" xmlns:xlink="http://www.w3.org/1999/xlink" xmlns:sodipodi="http://sodipodi.sourceforge.net/DTD/sodipodi-0.dtd" xmlns:inkscape="http://www.inkscape.org/namespaces/inkscape" id="svg3681" version="1.1" inkscape:version="0.48.4 r" width="1450" height="1200" sodipodi:docname="cassa_banner_test.svg">
  <metadata id="metadata3687">
    <rdf:RDF>
      <cc:Work rdf:about="">
        <dc:format>image/svg+xml</dc:format>
        <dc:type rdf:resource="http://purl.org/dc/dcmitype/StillImage"/>
        <dc:title/>
      </cc:Work>
    </rdf:RDF>
  </metadata>
    <g id="g3797" transform="matrix(0.46828297,0,0,0.46828297,25.707506,-125.60861)">
    <path transform="matrix(1.0014232,0,0,0.99998009,122.91834,51.400247)" d="m 2473.5375,1488.8579 c 0,661.5109 -536.2606,1197.7715 -1197.7715,1197.7715 -661.51093,0 -1197.771493,-536.2606 -1197.771493,-1197.7715 0,-661.51091 536.260563,-1197.77147 1197.771493,-1197.77147 661.5109,0 1197.7715,536.26056 1197.7715,1197.77147 z" sodipodi:ry="1197.7715" sodipodi:rx="1197.7715" sodipodi:cy="1488.8579" sodipodi:cx="1275.766" id="path2906" style="fill:#ffffff;fill-opacity:1;stroke:#014c74;stroke-width:68;stroke-linecap:round;stroke-linejoin:round;stroke-miterlimit:4;stroke-opacity:1;stroke-dasharray:none;stroke-dashoffset:0" sodipodi:type="arc"/>
    <path transform="translate(30.605538,6.9089703)" d="m 2269.8626,1533.5906 c 0,108.1451 -87.6689,195.814 -195.814,195.814 -108.1451,0 -195.814,-87.6689 -195.814,-195.814 0,-108.1451 87.6689,-195.814 195.814,-195.814 108.1451,0 195.814,87.6689 195.814,195.814 z" sodipodi:ry="195.81398" sodipodi:rx="195.81398" sodipodi:cy="1533.5906" sodipodi:cx="2074.0486" id="path3680" style="fill:#ffffff;fill-opacity:1;stroke:#014c74;stroke-width:115;stroke-linecap:round;stroke-linejoin:round;stroke-miterlimit:4;stroke-opacity:1;stroke-dasharray:none;stroke-dashoffset:0" sodipodi:type="arc"/>
    <path transform="translate(583.95141,6.409425)" d="m 2269.8626,1533.5906 c 0,108.1451 -87.6689,195.814 -195.814,195.814 -108.1451,0 -195.814,-87.6689 -195.814,-195.814 0,-108.1451 87.6689,-195.814 195.814,-195.814 108.1451,0 195.814,87.6689 195.814,195.814 z" sodipodi:ry="195.81398" sodipodi:rx="195.81398" sodipodi:cy="1533.5906" sodipodi:cx="2074.0486" id="path3680-5" style="fill:#ffffff;fill-opacity:1;stroke:#014c74;stroke-width:115;stroke-linecap:round;stroke-linejoin:round;stroke-miterlimit:4;stroke-opacity:1;stroke-dasharray:none;stroke-dashoffset:0" sodipodi:type="arc"/>
    <path sodipodi:end="5.6713426" sodipodi:start="0.6147708" transform="translate(904,78)" d="M 1186.736,1943.1021 C 916.61239,2325.6896 387.48547,2416.8596 4.8979353,2146.736 -377.68959,1876.6124 -468.85961,1347.4855 -198.736,964.89794 71.387608,582.31041 600.51453,491.14039 983.10206,761.264 1062.7747,817.5164 1132.1463,887.09138 1188.1652,966.92842 L 494,1454 z" sodipodi:ry="848" sodipodi:rx="848" sodipodi:cy="1454" sodipodi:cx="494" id="path3706" style="fill:#ffffff;fill-opacity:1;stroke:#014c74;stroke-width:110;stroke-miterlimit:4;stroke-opacity:1;stroke-dasharray:none" sodipodi:type="arc"/>
    <text sodipodi:linespacing="125%" transform="matrix(0.94907944,-0.37095503,0.37095503,0.94907944,-495.1619,598.54886)" id="text3708" style="font-size:238.0644989px;font-style:normal;font-variant:normal;font-weight:bold;font-stretch:normal;text-align:start;line-height:125%;writing-mode:lr-tb;text-anchor:start;fill:#014c74;fill-opacity:1;stroke:none;font-family:Kenyan Coffee" xml:space="preserve"><textPath id="textPath3714" xlink:href="#path3712"><tspan style="font-size:238.0644989px;font-style:normal;font-variant:normal;font-weight:bold;font-stretch:normal;text-align:start;line-height:125%;writing-mode:lr-tb;text-anchor:start;fill:#014c74;fill-opacity:1;font-family:Kenyan Coffee" id="tspan3710">Computer And Security Student Association Computer And Security Student Association</tspan></textPath></text>
    <path transform="matrix(1.516129,0,0,1.516129,-806.64516,-482.06452)" d="m 1658.5957,996 c 0,37.8844 -30.7113,68.5957 -68.5957,68.5957 -37.8844,0 -68.5957,-30.7113 -68.5957,-68.5957 0,-37.88438 30.7113,-68.59574 68.5957,-68.59574 37.8844,0 68.5957,30.71136 68.5957,68.59574 z" sodipodi:ry="68.595741" sodipodi:rx="68.595741" sodipodi:cy="996" sodipodi:cx="1590" id="path3704" style="fill:#014c74;fill-opacity:1;fill-rule:nonzero;stroke:none" sodipodi:type="arc"/>
    <path transform="translate(-2052,1176)" d="m 4404,364 c 0,523.56594 -424.4341,948 -948,948 -523.5659,0 -948,-424.43406 -948,-948 0,-523.56594 424.4341,-948 948,-948 523.5659,0 948,424.43406 948,948 z" sodipodi:ry="948" sodipodi:rx="948" sodipodi:cy="364" sodipodi:cx="3456" id="path3712" style="fill:none;stroke:#000000;stroke-width:50;stroke-miterlimit:4;stroke-opacity:0;stroke-dasharray:none" sodipodi:type="arc"/>
  </g>
</svg>