<?xml version="1.0" encoding="UTF-8" standalone="no"?>
<!-- Created with Inkscape (http://www.inkscape.org/) -->

<svg
   xmlns:dc="http://purl.org/dc/elements/1.1/"
   xmlns:cc="http://creativecommons.org/ns#"
   xmlns:rdf="http://www.w3.org/1999/02/22-rdf-syntax-ns#"
   xmlns:svg="http://www.w3.org/2000/svg"
   xmlns="http://www.w3.org/2000/svg"
   version="1.1"
   width="1450"
   height="1200"
   id="svg3681">
  <defs
     id="defs16" />
  <metadata
     id="metadata3687">
    <rdf:RDF>
      <cc:Work
         rdf:about="">
        <dc:format>image/svg+xml</dc:format>
        <dc:type
           rdf:resource="http://purl.org/dc/dcmitype/StillImage" />
        <dc:title></dc:title>
      </cc:Work>
    </rdf:RDF>
  </metadata>
  <g
     transform="matrix(0.46828297,0,0,0.46828297,25.707506,-125.60861)"
     id="g3797">
    <path
       d="m 2473.5375,1488.8579 a 1197.7715,1197.7715 0 1 1 -2395.542993,0 1197.7715,1197.7715 0 1 1 2395.542993,0 z"
       transform="matrix(1.0014232,0,0,0.99998009,122.91834,51.400247)"
       id="path2906"
       style="fill:#ffffff;fill-opacity:1;stroke:#014c74;stroke-width:68;stroke-linecap:round;stroke-linejoin:round;stroke-miterlimit:4;stroke-opacity:1;stroke-dasharray:none;stroke-dashoffset:0" />
    <path
       d="m 2269.8626,1533.5906 a 195.81398,195.81398 0 1 1 -391.628,0 195.81398,195.81398 0 1 1 391.628,0 z"
       transform="translate(30.605538,6.9089703)"
       id="path3680"
       style="fill:#ffffff;fill-opacity:1;stroke:#014c74;stroke-width:115;stroke-linecap:round;stroke-linejoin:round;stroke-miterlimit:4;stroke-opacity:1;stroke-dasharray:none;stroke-dashoffset:0" />
    <path
       d="m 2269.8626,1533.5906 a 195.81398,195.81398 0 1 1 -391.628,0 195.81398,195.81398 0 1 1 391.628,0 z"
       transform="translate(583.95141,6.409425)"
       id="path3680-5"
       style="fill:#ffffff;fill-opacity:1;stroke:#014c74;stroke-width:115;stroke-linecap:round;stroke-linejoin:round;stroke-miterlimit:4;stroke-opacity:1;stroke-dasharray:none;stroke-dashoffset:0" />
    <path
       d="m 1186.736,1943.1021 a 848,848 0 1 1 1.4292,-976.17368 L 494,1454 z"
       transform="translate(904,78)"
       id="path3706"
       style="fill:#ffffff;fill-opacity:1;stroke:#014c74;stroke-width:110;stroke-miterlimit:4;stroke-opacity:1;stroke-dasharray:none" />
    <g
       transform="matrix(0.94907944,-0.37095503,0.37095503,0.94907944,-495.1619,598.54886)"
       id="text3708"
       style="font-size:238.0644989px;font-style:normal;font-variant:normal;font-weight:bold;font-stretch:normal;text-align:start;line-height:125%;writing-mode:lr-tb;text-anchor:start;fill:#014c74;fill-opacity:1;stroke:none;font-family:Kenyan Coffee">
      <path
         d="m 2387.7032,1547.809 102.2995,4.7468 c 16.4885,0.7651 26.7738,4.8109 30.856,12.1376 2.4973,4.6929 3.333,15.9418 2.507,33.7465 -0.6683,14.3985 -3.3699,23.7183 -8.1049,27.9594 -4.7352,4.241 -14.3795,6.0238 -28.9327,5.3486 l -38.551,-1.7888 1.6541,-35.6481 36.1017,1.9079 c 5.2639,0.2442 7.9623,-1.0658 8.0954,-3.9299 0.1256,-2.7095 -2.4436,-4.1863 -7.7074,-4.4305 l -97.4226,-4.5205 c -5.264,-0.2443 -7.9589,0.9882 -8.0846,3.6977 -0.1042,2.2449 1.4973,3.6768 4.8045,4.2958 0.1548,0.01 2.5932,0.1203 7.3154,0.3394 l 31.7001,1.4709 -1.6541,35.6481 -38.5511,-1.7888 c -14.5534,-0.6754 -24.0307,-3.3261 -28.4319,-7.9522 -4.4013,-4.6263 -6.266,-14.1774 -5.5943,-28.6533 0.8225,-17.7273 2.7737,-28.8468 5.8534,-33.3586 4.5881,-6.9243 15.2039,-10.0003 31.8475,-9.228 z"
         id="path2994"
         style="font-size:238.0644989px;font-style:normal;font-variant:normal;font-weight:bold;font-stretch:normal;text-align:start;line-height:125%;writing-mode:lr-tb;text-anchor:start;fill:#014c74;fill-opacity:1;font-family:Kenyan Coffee" />
      <path
         d="m 2375.1039,1638.3109 69.1235,9.2934 c 14.8231,1.9929 23.8697,5.2226 27.1398,9.6892 3.2699,4.4665 3.8929,14.2265 1.8692,29.2801 -1.7762,13.2102 -4.5227,21.7158 -8.2395,25.5167 -4.4243,4.4094 -12.9344,5.7674 -25.5301,4.074 l -71.4277,-9.6031 c -13.6711,-1.8381 -21.9501,-5.6879 -24.8371,-11.5494 -2.1615,-4.2785 -2.2716,-13.6373 -0.3303,-28.0764 1.6728,-12.4422 4.2805,-20.4973 7.8232,-24.1652 4.2912,-4.5837 12.4276,-6.0701 24.409,-4.4593 z m 0.2578,31.2334 c -4.2243,-0.568 -6.4861,0.2617 -6.7855,2.489 -0.3202,2.3809 2.592,3.9844 8.7363,4.8105 l 61.6351,8.2866 c 5.453,0.7331 8.3344,-0.052 8.6443,-2.3564 -10e-5,-10e-5 0.01,-0.038 0.015,-0.1152 0.2994,-2.2274 -3.6215,-3.8883 -11.7626,-4.9828 z"
         id="path2996"
         style="font-size:238.0644989px;font-style:normal;font-variant:normal;font-weight:bold;font-stretch:normal;text-align:start;line-height:125%;writing-mode:lr-tb;text-anchor:start;fill:#014c74;fill-opacity:1;font-family:Kenyan Coffee" />
      <path
         d="m 2337.8466,1712.4633 126.0908,30.4975 -7.2418,29.9409 -6.8921,-1.667 c 4.3641,5.3609 5.7536,11.3179 4.1688,17.8711 -0.018,0.075 -0.037,0.1506 -0.055,0.226 -1.6033,6.6283 -5.5435,11.2165 -11.8204,13.7646 4.4418,5.6986 5.8247,12.0128 4.1487,18.9426 -0.018,0.075 -0.036,0.1505 -0.055,0.226 -3.9899,16.4956 -19.317,21.5188 -45.9813,15.0696 l -87.45,-21.1515 7.3237,-30.2798 87.4501,21.1515 c 8.5114,2.0585 13.0313,1.9957 13.5597,-0.1886 0.5647,-2.3351 -3.4086,-4.5319 -11.9201,-6.5905 l -87.45,-21.1515 7.2691,-30.0539 87.4501,21.1515 c 8.5114,2.0586 13.0313,1.9958 13.5597,-0.1885 0.5465,-2.2598 -3.1724,-4.3552 -11.1565,-6.2863 -0.2261,-0.055 -0.4897,-0.1185 -0.7909,-0.1913 l -87.4501,-21.1515 z"
         id="path2998"
         style="font-size:238.0644989px;font-style:normal;font-variant:normal;font-weight:bold;font-stretch:normal;text-align:start;line-height:125%;writing-mode:lr-tb;text-anchor:start;fill:#014c74;fill-opacity:1;font-family:Kenyan Coffee" />
      <path
         d="m 2278.7028,1816.7737 152.4478,54.2398 -10.4817,29.4601 -4.9282,-1.7534 c 2.1388,5.7784 2.2472,11.3691 0.325,16.772 -4.8318,13.58 -17.2502,16.8113 -37.2553,9.6937 l -59.9058,-21.3141 c -10.1486,-3.6108 -17.4016,-7.3841 -21.7591,-11.3197 -6.4242,-5.9872 -8.1037,-13.2884 -5.0384,-21.9037 1.8703,-5.2569 5.3346,-9.3297 10.3928,-12.2184 l -34.2788,-12.1962 z m 49.8622,50.93 c -3.1395,-1.117 -5.0469,-0.7264 -5.7223,1.172 -0.7534,2.1173 1.3889,4.0721 6.4267,5.8646 l 58.1536,20.6906 c 3.7235,1.3247 5.9619,0.9285 6.7153,-1.1888 0.6753,-1.8983 -1.9074,-3.8866 -7.7482,-5.9647 -0.2191,-0.078 -0.4382,-0.1559 -0.6571,-0.2337 l -54.3205,-19.3269 c -0.2921,-0.1039 -0.7302,-0.2598 -1.3142,-0.4676 -0.5842,-0.2078 -1.0952,-0.3897 -1.5333,-0.5455 z"
         id="path3000"
         style="font-size:238.0644989px;font-style:normal;font-variant:normal;font-weight:bold;font-stretch:normal;text-align:start;line-height:125%;writing-mode:lr-tb;text-anchor:start;fill:#014c74;fill-opacity:1;font-family:Kenyan Coffee" />
      <path
         d="m 2315.2051,1914.7067 85.0097,38.5512 -12.8664,28.3719 -81.0927,-36.7749 c -7.9752,-3.6167 -12.3596,-4.4563 -13.1532,-2.5186 -0.9922,2.1878 2.4641,5.0741 10.3687,8.6588 l 81.0927,36.7748 -12.7704,28.1602 -118.1455,-53.578 12.7703,-28.1602 4.764,2.1605 c -1.583,-6.0787 -1.2544,-11.5882 0.986,-16.5286 3.8728,-8.5398 10.2378,-12.6308 19.0952,-12.2729 5.8686,0.1937 13.8491,2.5789 23.9416,7.1558 z"
         id="path3002"
         style="font-size:238.0644989px;font-style:normal;font-variant:normal;font-weight:bold;font-stretch:normal;text-align:start;line-height:125%;writing-mode:lr-tb;text-anchor:start;fill:#014c74;fill-opacity:1;font-family:Kenyan Coffee" />
      <path
         d="m 2342.0597,2018.4558 22.1681,12.0356 -3.4388,6.3338 36.4701,19.8005 -14.7533,27.1738 -36.4701,-19.8005 -5.3246,9.8071 -22.168,-12.0357 5.3245,-9.807 -60.2727,-32.7236 c -4.1544,-2.2556 -6.8572,-3.0837 -8.1085,-2.4844 -1.2512,0.5992 -3.1156,3.1803 -5.5929,7.7434 l -23.1897,-12.5903 4.9917,-9.1941 c 6.212,-11.4416 12.6503,-17.7781 19.3151,-19.0095 5.83,-1.1556 14.602,1.4466 26.316,7.8064 l 61.2943,33.2783 z"
         id="path3004"
         style="font-size:238.0644989px;font-style:normal;font-variant:normal;font-weight:bold;font-stretch:normal;text-align:start;line-height:125%;writing-mode:lr-tb;text-anchor:start;fill:#014c74;fill-opacity:1;font-family:Kenyan Coffee" />
      <path
         d="m 2244.3124,2035.1236 4.4114,2.811 58.6229,37.3551 c 10.8488,6.9129 16.5001,13.5464 16.954,19.9004 0.3416,5.0879 -3.069,13.2523 -10.2317,24.4934 -7.2463,11.3715 -13.0186,18.1229 -17.317,20.2542 -6.1534,2.8788 -14.5892,0.9034 -25.3072,-5.9261 l -40.9773,-26.1111 20.3642,-31.9584 -17.0575,-10.8692 c -4.8362,-3.0817 -7.8582,-3.6749 -9.0659,-1.7796 -1.2077,1.8952 3.2208,6.0495 13.2853,12.4628 l -16.741,26.2725 -9.5091,-6.0593 c -12.1559,-7.7459 -18.6676,-14.3993 -19.535,-19.9599 -0.8673,-5.5609 2.6968,-14.6152 10.6926,-27.1633 6.913,-10.8488 12.6167,-17.2763 17.1113,-19.2825 6.07,-2.7483 14.17,-0.895 24.3,5.56 z m 28.9685,55.1234 -3.623,5.6859 15.489,9.8697 c 3.2023,2.0405 5.4073,2.1132 6.6151,0.218 1.2076,-1.8954 0.2102,-3.8633 -2.9921,-5.9038 z"
         id="path3006"
         style="font-size:238.0644989px;font-style:normal;font-variant:normal;font-weight:bold;font-stretch:normal;text-align:start;line-height:125%;writing-mode:lr-tb;text-anchor:start;fill:#014c74;fill-opacity:1;font-family:Kenyan Coffee" />
      <path
         d="m 2179.2268,2086.5686 103.597,78.081 -17.9111,23.7642 -2.8777,-2.1689 c 0.1585,5.0684 -1.3015,9.6449 -4.3799,13.7295 -5.5506,7.3643 -12.7324,9.8117 -21.5455,7.3421 -5.421,-1.5628 -12.3707,-5.5392 -20.849,-11.9293 -0.3095,-0.2333 -0.6189,-0.4665 -0.9283,-0.6996 l -16.9877,-12.8036 16.4418,-21.8148 15.5953,11.7541 c 6.1885,4.6643 10.0367,6.0605 11.5446,4.1888 1.306,-1.7329 -0.9497,-4.7915 -6.7669,-9.1759 -0.1857,-0.14 -0.4023,-0.3033 -0.6498,-0.4898 l -72.9634,-54.9925 z"
         id="path3008"
         style="font-size:238.0644989px;font-style:normal;font-variant:normal;font-weight:bold;font-stretch:normal;text-align:start;line-height:125%;writing-mode:lr-tb;text-anchor:start;fill:#014c74;fill-opacity:1;font-family:Kenyan Coffee" />
      <path
         d="m 2111.1178,2172.6378 97.6034,94.8799 c 10.4465,10.1549 15.8109,18.4227 16.0931,24.8034 0.282,6.3804 -4.6005,14.7384 -14.6475,25.074 -12.3698,12.7246 -21.2572,19.8103 -26.6621,21.2571 -7.9177,2.0299 -17.8778,-2.7888 -29.8802,-14.4562 l -97.6035,-94.8799 24.7126,-25.4219 23.9216,23.2541 5.6717,-5.8345 -23.9216,-23.2541 z m 71.386,118.5146 -50.6725,-48.9343 -5.6717,5.8346 50.3483,49.2676 c 3.7785,3.673 6.6131,4.5371 8.5037,2.5924 2.1066,-2.1672 1.2707,-5.0873 -2.5078,-8.7603 z"
         id="path3010"
         style="font-size:238.0644989px;font-style:normal;font-variant:normal;font-weight:bold;font-stretch:normal;text-align:start;line-height:125%;writing-mode:lr-tb;text-anchor:start;fill:#014c74;fill-opacity:1;font-family:Kenyan Coffee" />
      <path
         d="m 2046.9995,2237.437 84.4962,98.4347 -23.7267,20.3669 -3.2556,-3.7928 c -0.7942,6.0945 -3.2493,10.9084 -7.3654,14.4418 -7.2327,6.2084 -14.839,7.2225 -22.8188,3.0425 -5.0788,-2.5854 -11.0505,-7.8765 -17.9152,-15.8735 -0.2524,-0.2941 -0.4795,-0.5587 -0.6814,-0.7938 l -60.9493,-71.0035 23.6384,-20.2912 59.0565,68.7985 c 5.2494,6.1153 8.752,8.4705 10.5078,7.0656 1.5288,-1.3125 -0.1801,-4.85 -5.1267,-10.6125 -0.2019,-0.2353 -0.3786,-0.4411 -0.53,-0.6174 l -59.0564,-68.7984 z"
         id="path3012"
         style="font-size:238.0644989px;font-style:normal;font-variant:normal;font-weight:bold;font-stretch:normal;text-align:start;line-height:125%;writing-mode:lr-tb;text-anchor:start;fill:#014c74;fill-opacity:1;font-family:Kenyan Coffee" />
      <path
         d="m 2008.2002,2319.6034 33.5131,46.4868 c 6.4805,8.9892 10.3048,16.2155 11.4728,21.6787 1.9194,8.3606 -0.987,15.328 -8.719,20.9023 -4.6519,3.3535 -9.8797,4.7817 -15.6834,4.2847 l 26.7833,37.1518 -25.0821,18.0821 -100.1315,-138.8947 25.0822,-18.0821 3.059,4.2432 c 1.6491,-6.0611 4.6738,-10.6778 9.0742,-13.85 7.7321,-5.5742 15.4422,-5.8782 23.1303,-0.912 4.779,3.051 10.6126,9.3541 17.5011,18.9092 z m -26.2378,16.4791 c -3.2176,-4.4633 -5.7065,-6.0604 -7.4666,-4.7915 0,0 -0.031,0.023 -0.094,0.068 0,0 -0.031,0.023 -0.094,0.068 -1.8859,1.3595 -1.22,4.2709 1.9976,8.7342 l 33.717,46.7697 c 3.8974,5.406 6.8205,7.4067 8.7692,6.0019 1.823,-1.3143 0.7858,-4.6745 -3.1116,-10.0806 z"
         id="path3014"
         style="font-size:238.0644989px;font-style:normal;font-variant:normal;font-weight:bold;font-stretch:normal;text-align:start;line-height:125%;writing-mode:lr-tb;text-anchor:start;fill:#014c74;fill-opacity:1;font-family:Kenyan Coffee" />
      <path
         d="m 1953.3855,2476.02 c 7.5493,13.978 9.9188,24.236 7.1086,30.7743 -2.2922,5.3773 -10.5637,11.9143 -24.8145,19.6111 -14.2509,7.6965 -24.1113,11.1284 -29.5814,10.2957 -7.2076,-0.9517 -14.5124,-8.2801 -21.9144,-21.9852 l -11.4345,-21.1717 31.3996,-16.9584 8.9487,16.5691 c 3.388,6.273 6.2752,8.7651 8.6617,7.4763 1.9774,-1.0681 1.4085,-4.8123 -1.7068,-11.2325 0,-2e-4 0.018,0.034 0.055,0.1022 l -6.0763,-11.2506 c -1.9518,-3.614 -6.1428,-5.6662 -12.573,-6.1566 -5.1018,-0.1512 -10.2009,-0.2156 -15.2973,-0.1934 -11.3111,-0.2325 -19.2544,-1.9756 -23.8301,-5.2291 -4.176,-2.6769 -8.9339,-8.9588 -14.2737,-18.8456 l -14.3622,-26.5925 c -6.7759,-12.5463 -8.2078,-22.2098 -4.2957,-28.9907 2.7232,-4.9056 10.8693,-11.0226 24.4382,-18.351 13.7054,-7.402 23.5399,-10.5557 29.5037,-9.461 6.9349,1.0988 14.0296,8.3644 21.2844,21.7971 l 16.7374,30.9904 -31.195,16.8479 -13.9203,-25.7742 c -3.3879,-6.2731 -6.1388,-8.8389 -8.2526,-7.6972 -2.5229,1.3625 -1.9798,5.3849 1.6291,12.0671 0.9943,1.841 2.449,4.5343 4.3639,8.0801 1.915,3.5455 3.3696,6.2389 4.3639,8.08 2.5778,4.7729 4.6755,7.5153 6.2929,8.2272 0.9138,0.3871 4.3389,0.6951 10.2754,0.9239 8.3612,0.1521 13.7072,0.3475 16.0379,0.5861 6.9129,0.4059 12.1389,1.1944 15.678,2.3658 6.2066,2.1965 12.5138,9.227 18.9215,21.0914 0.847,1.5682 2.0991,3.8865 3.7563,6.955 1.8671,3.1309 3.2242,5.4806 4.0713,7.049 z"
         id="path3016"
         style="font-size:238.0644989px;font-style:normal;font-variant:normal;font-weight:bold;font-stretch:normal;text-align:start;line-height:125%;writing-mode:lr-tb;text-anchor:start;fill:#014c74;fill-opacity:1;font-family:Kenyan Coffee" />
      <path
         d="m 1819.9453,2422.277 2.0709,4.8035 27.5195,63.8336 c 5.0927,11.8131 6.0424,20.4755 2.8489,25.9875 -2.5752,4.4013 -9.9828,9.2404 -22.2229,14.5174 -12.3824,5.3381 -20.9503,7.6816 -25.7037,7.0305 -6.7081,-1.0745 -12.5778,-7.4471 -17.6092,-19.1178 l -19.2361,-44.6195 34.7989,-15.0022 -8.0073,-18.5737 c -2.2703,-5.2661 -4.4373,-7.4543 -6.501,-6.5646 -2.0637,0.8897 -0.7333,6.8141 3.9913,17.7733 l -28.6077,12.3332 -4.4639,-10.3543 c -5.7063,-13.2364 -7.3566,-22.3986 -4.9508,-27.4864 2.4058,-5.0879 10.4404,-10.5771 24.1037,-16.4675 11.8132,-5.0928 20.1425,-7.2069 24.9879,-6.3422 6.5657,1.1358 12.2262,7.2188 16.9815,18.2492 z m -6.9952,61.8776 -6.1913,2.6691 7.2711,16.8658 c 1.5033,3.4869 3.2868,4.7855 5.3505,3.8959 2.0638,-0.8898 2.344,-3.0782 0.8407,-6.5651 z"
         id="path3018"
         style="font-size:238.0644989px;font-style:normal;font-variant:normal;font-weight:bold;font-stretch:normal;text-align:start;line-height:125%;writing-mode:lr-tb;text-anchor:start;fill:#014c74;fill-opacity:1;font-family:Kenyan Coffee" />
      <path
         d="m 1746.7582,2452.9831 23.9614,71.0444 c 4.2103,12.4831 4.7436,21.2177 1.6,26.2037 -2.7304,4.0286 -10.3006,8.1357 -22.7104,12.3213 -0.2937,0.099 -0.6241,0.2104 -0.9913,0.3344 -12.9238,4.3587 -21.6297,6.0683 -26.1177,5.1286 -6.7447,-1.5692 -12.1479,-8.375 -16.2097,-20.4175 l -6.7612,-20.0467 29.2989,-9.8818 5.0152,14.8698 c 1.6099,4.7729 3.4428,6.8127 5.4989,6.1193 0,-1e-4 0.037,-0.013 0.1101,-0.037 2.1295,-0.7184 2.5256,-3.0601 1.1882,-7.0253 -0.074,-0.2204 -0.161,-0.4774 -0.2601,-0.771 l -1.0773,-3.1942 -19.1692,-56.8355 c -1.9318,-5.7277 -3.9624,-8.2324 -6.0919,-7.5141 -2.1295,0.7182 -2.2283,3.9411 -0.2966,9.6687 l 8.5073,25.2235 -29.299,9.8818 -10.6247,-31.5018 c -4.1607,-12.3364 -4.1062,-21.1466 0.1636,-26.4305 2.9278,-3.6864 10.927,-7.7337 23.9976,-12.1421 11.749,-3.9627 20.0028,-5.3152 24.7614,-4.0578 6.5979,1.6186 11.7667,7.9719 15.5065,19.0599 z"
         id="path3020"
         style="font-size:238.0644989px;font-style:normal;font-variant:normal;font-weight:bold;font-stretch:normal;text-align:start;line-height:125%;writing-mode:lr-tb;text-anchor:start;fill:#014c74;fill-opacity:1;font-family:Kenyan Coffee" />
      <path
         d="m 1674.1967,2487.4627 22.3706,90.6224 -30.245,7.4661 -21.3399,-86.4467 c -2.0986,-8.5018 -4.1544,-12.4643 -6.1672,-11.8875 -2.3323,0.5757 -2.4584,5.0768 -0.3783,13.5033 l 21.3398,86.4467 -30.0194,7.4105 -31.0904,-125.9459 30.0194,-7.4105 1.2537,5.0785 c 3.7927,-5.0071 8.3223,-8.1607 13.5888,-9.4608 9.1037,-2.2473 16.2574,0.2173 21.4612,7.3938 3.482,4.7279 6.5509,12.4713 9.2067,23.2301 z"
         id="path3022"
         style="font-size:238.0644989px;font-style:normal;font-variant:normal;font-weight:bold;font-stretch:normal;text-align:start;line-height:125%;writing-mode:lr-tb;text-anchor:start;fill:#014c74;fill-opacity:1;font-family:Kenyan Coffee" />
      <path
         d="m 1586.5245,2470.9103 20.8487,128.0403 -29.3713,4.7825 -0.5791,-3.5567 c -3.3902,3.771 -7.6094,6.0676 -12.6576,6.8897 -9.102,1.482 -15.9825,-1.716 -20.6415,-9.594 -2.8355,-4.8775 -5.1064,-12.5555 -6.8127,-23.0342 -0.062,-0.3826 -0.1245,-0.765 -0.1869,-1.1473 l -3.4187,-20.9959 26.9619,-4.3902 3.1385,19.2749 c 1.2455,7.6487 3.06,11.3182 5.4435,11.0088 2.1417,-0.3489 2.6272,-4.1181 1.4564,-11.3079 -0.037,-0.2295 -0.081,-0.4972 -0.1307,-0.8031 l -14.6838,-90.1789 z"
         id="path3024"
         style="font-size:238.0644989px;font-style:normal;font-variant:normal;font-weight:bold;font-stretch:normal;text-align:start;line-height:125%;writing-mode:lr-tb;text-anchor:start;fill:#014c74;fill-opacity:1;font-family:Kenyan Coffee" />
      <path
         d="m 1515.2631,2481.6624 12.9974,129.0738 -30.8806,3.1096 -12.9973,-129.0738 z m 14.8841,147.8103 2.2711,22.5532 -30.8806,3.1096 -2.271,-22.5532 z"
         id="path3026"
         style="font-size:238.0644989px;font-style:normal;font-variant:normal;font-weight:bold;font-stretch:normal;text-align:start;line-height:125%;writing-mode:lr-tb;text-anchor:start;fill:#014c74;fill-opacity:1;font-family:Kenyan Coffee" />
      <path
         d="m 1482.0453,2589.9724 1.2237,25.195 -7.1985,0.3496 2.0132,41.4497 -30.884,1.5 -2.0133,-41.4496 -11.1461,0.5413 -1.2238,-25.1949 11.1462,-0.5413 -3.3273,-68.5023 c -0.2292,-4.7217 -0.9248,-7.4616 -2.0867,-8.2198 -1.1618,-0.7583 -4.3357,-1.0114 -9.5218,-0.7595 l -1.2801,-26.356 10.4495,-0.5075 c 13.0038,-0.6316 21.7621,1.5809 26.275,6.6376 4.0146,4.3826 6.3452,13.2306 6.9918,26.5441 l 3.3837,69.6633 z"
         id="path3028"
         style="font-size:238.0644989px;font-style:normal;font-variant:normal;font-weight:bold;font-stretch:normal;text-align:start;line-height:125%;writing-mode:lr-tb;text-anchor:start;fill:#014c74;fill-opacity:1;font-family:Kenyan Coffee" />
      <path
         d="m 1416.9864,2517.5762 -0.025,1.1622 -2.1316,98.318 -30.6808,-0.6652 2.1013,-96.9234 c 0.086,-3.9513 -1.0723,-5.953 -3.4741,-6.0051 -2.5567,-0.055 -3.8779,1.8925 -3.9636,5.8438 l -2.1014,96.9235 -30.4483,-0.6602 2.8068,-129.4636 c 0.4637,-21.3836 13.1701,-31.8437 38.1192,-31.3803 l 28.7051,0.6223 -0.5593,25.7998 -27.543,-0.5972 c -3.0216,-0.066 -5.1404,0.2374 -6.3564,0.9087 -1.216,0.6712 -1.8534,2.3627 -1.9122,5.0744 -0.01,0.4648 0.05,1.2607 0.1808,2.3874 0.1306,1.1268 0.1909,1.9226 0.1808,2.3875 5.2025,-3.9954 10.3226,-5.9773 15.3602,-5.9456 8.9098,0.1932 15.1764,4.321 18.7998,12.3834 2.1477,4.6198 3.1283,11.2297 2.9419,19.8296 z"
         id="path3030"
         style="font-size:238.0644989px;font-style:normal;font-variant:normal;font-weight:bold;font-stretch:normal;text-align:start;line-height:125%;writing-mode:lr-tb;text-anchor:start;fill:#014c74;fill-opacity:1;font-family:Kenyan Coffee" />
      <path
         d="m 1279.4097,2618.0988 c -2.379,15.7072 -6.6576,25.3268 -12.8358,28.8588 -5.066,2.9163 -15.606,3.1618 -31.6198,0.7366 -16.0138,-2.4256 -25.9549,-5.6164 -29.8233,-9.5725 -5.1849,-5.0962 -6.611,-15.3447 -4.2785,-30.7454 l 3.6033,-23.7909 35.284,5.3441 -2.82,18.6189 c -1.0676,7.049 -0.2605,10.7767 2.4211,11.183 2.2221,0.3364 4.0202,-2.9967 5.3943,-9.9993 0,-1e-4 -0.01,0.038 -0.017,0.115 l 1.9149,-12.6425 c 0.6151,-4.061 -1.498,-8.2216 -6.3393,-12.4818 -3.9844,-3.1901 -8.0187,-6.3093 -12.1031,-9.3575 -8.8952,-6.9906 -14.1917,-13.1618 -15.8893,-18.5134 -1.7253,-4.6506 -1.7466,-12.5309 -0.064,-23.6409 l 4.5259,-29.8823 c 2.1354,-14.0982 6.8053,-22.6788 14.0097,-25.7417 5.1266,-2.2803 15.3136,-2.2658 30.5611,0.044 15.4009,2.3326 25.1539,5.73 29.2592,10.1924 4.8784,5.0497 6.1746,15.1217 3.8884,30.2161 l -5.2745,34.8243 -35.0541,-5.3093 4.3866,-28.9628 c 1.0677,-7.0491 0.4139,-10.7536 -1.9614,-11.1133 -2.8349,-0.4294 -4.821,3.1103 -5.9584,10.6192 -0.3132,2.0688 -0.7716,5.0953 -1.3751,9.0796 -0.6034,3.9843 -1.0618,7.0108 -1.3752,9.0796 -0.8123,5.3634 -0.7866,8.816 0.077,10.3577 0.4969,0.859 3.0476,3.1656 7.6519,6.9198 6.5874,5.1517 10.7402,8.5239 12.4584,10.1167 5.2778,4.4831 8.9778,8.257 11.1001,11.3218 3.6363,5.4885 4.4449,14.8989 2.4256,28.231 -0.2669,1.7622 -0.6615,4.3673 -1.1837,7.8154 -0.3922,3.6243 -0.7217,6.3176 -0.9887,8.08 z"
         id="path3032"
         style="font-size:238.0644989px;font-style:normal;font-variant:normal;font-weight:bold;font-stretch:normal;text-align:start;line-height:125%;writing-mode:lr-tb;text-anchor:start;fill:#014c74;fill-opacity:1;font-family:Kenyan Coffee" />
      <path
         d="m 1191.9695,2571.452 -5.6745,24.578 -7.0223,-1.6213 -9.3354,40.4349 -30.128,-6.9558 9.3355,-40.4349 -10.8733,-2.5104 5.6745,-24.578 10.8733,2.5104 15.4283,-66.8252 c 1.0635,-4.606 1.1393,-7.4318 0.2274,-8.4774 -0.9118,-1.0457 -3.8972,-2.1525 -8.9564,-3.3205 l 5.936,-25.7107 10.1937,2.3535 c 12.6855,2.9288 20.512,7.4398 23.4795,13.5332 2.6713,5.3093 2.5078,14.4576 -0.4907,27.4451 l -15.6899,67.9578 z"
         id="path3034"
         style="font-size:238.0644989px;font-style:normal;font-variant:normal;font-weight:bold;font-stretch:normal;text-align:start;line-height:125%;writing-mode:lr-tb;text-anchor:start;fill:#014c74;fill-opacity:1;font-family:Kenyan Coffee" />
      <path
         d="m 1146.8483,2491.0793 -27.4774,89.2067 -29.7726,-9.1705 26.2113,-85.0964 c 2.5779,-8.3689 2.8555,-12.8243 0.833,-13.3662 -2.2958,-0.7072 -4.7213,3.0867 -7.2763,11.3816 l -26.2113,85.0963 -29.5504,-9.1021 38.1877,-123.9785 29.5505,9.1021 -1.5399,4.9991 c 5.8294,-2.3399 11.3361,-2.7115 16.5204,-1.1146 8.9614,2.7603 13.8254,8.5561 14.5919,17.3876 0.5509,5.8458 -0.8047,14.0641 -4.0669,24.6549 z"
         id="path3036"
         style="font-size:238.0644989px;font-style:normal;font-variant:normal;font-weight:bold;font-stretch:normal;text-align:start;line-height:125%;writing-mode:lr-tb;text-anchor:start;fill:#014c74;fill-opacity:1;font-family:Kenyan Coffee" />
      <path
         d="m 1067.5668,2467.4073 -21.458,53.1385 c -4.1494,10.2755 -8.2236,17.3639 -12.2227,21.2651 -6.0495,6.0816 -13.4935,7.3379 -22.332,3.7689 -5.3174,-2.1473 -9.3131,-5.8084 -11.98727,-10.9833 l -17.14902,42.4677 -28.6711,-11.5778 64.11299,-158.7688 28.6711,11.5777 -1.9587,4.8504 c 6.0069,-1.8367 11.5254,-1.7394 16.5554,0.2918 8.8384,3.5691 13.2067,9.9296 13.1047,19.0817 -0.033,5.6697 -2.2548,13.9658 -6.6654,24.8881 z m -27.9312,-13.4101 c 2.0603,-5.1019 2.0844,-8.0591 0.072,-8.8716 10e-5,0 -0.036,-0.014 -0.1078,-0.043 10e-5,0 -0.036,-0.015 -0.1078,-0.044 -2.1556,-0.8705 -4.2636,1.2452 -6.3238,6.347 l -21.5887,53.4619 c -2.4953,6.1797 -2.6293,9.7193 -0.4018,10.6189 2.084,0.8414 4.3736,-1.8277 6.869,-8.0073 z"
         id="path3038"
         style="font-size:238.0644989px;font-style:normal;font-variant:normal;font-weight:bold;font-stretch:normal;text-align:start;line-height:125%;writing-mode:lr-tb;text-anchor:start;fill:#014c74;fill-opacity:1;font-family:Kenyan Coffee" />
      <path
         d="m 995.26572,2425.6445 -2.35553,4.6706 -31.30237,62.0662 c -5.7928,11.4859 -11.82757,17.7726 -18.10432,18.86 -5.02813,0.8489 -13.49283,-1.7277 -25.39413,-7.7299 -12.03949,-6.0721 -19.33455,-11.14 -21.88521,-15.2036 -3.48002,-5.8345 -2.35856,-14.4255 3.36438,-25.7731 l 21.88026,-43.3841 33.83542,17.0645 9.10805,-18.0594 c 2.58241,-5.1203 2.87028,-8.1865 0.86364,-9.1985 -2.00655,-1.012 -5.6969,3.8099 -11.07105,14.4656 l -27.81562,-14.0284 5.07747,-10.0676 c 6.49087,-12.8699 12.45929,-20.0146 17.90529,-21.434 5.44612,-1.4194 14.81169,1.221 28.09672,7.9212 11.48607,5.7928 18.45202,10.8249 20.89785,15.0962 3.34173,5.7646 2.30813,14.0094 -3.10085,24.7343 z m -51.94852,34.3384 -6.0198,-3.036 -8.27053,16.3988 c -1.70985,3.3904 -1.56152,5.5916 0.44499,6.6037 2.00668,1.0119 3.86495,-0.1773 5.57481,-3.5677 z"
         id="path3040"
         style="font-size:238.0644989px;font-style:normal;font-variant:normal;font-weight:bold;font-stretch:normal;text-align:start;line-height:125%;writing-mode:lr-tb;text-anchor:start;fill:#014c74;fill-opacity:1;font-family:Kenyan Coffee" />
      <path
         d="m 937.48708,2366.1626 -67.90396,110.5352 -26.64335,-16.3675 2.61638,-4.259 c -6.04559,1.1063 -11.3795,0.2397 -16.00175,-2.5996 -8.12164,-4.9895 -11.41173,-11.9219 -9.87027,-20.7974 0.90961,-5.6259 4.1227,-12.9289 9.63927,-21.909 0.20293,-0.3302 0.38547,-0.6274 0.54761,-0.8915 l 48.9809,-79.7319 26.5443,16.3067 -47.45976,77.2558 c -4.21855,6.8671 -5.39071,10.9219 -3.51648,12.1643 1.71688,1.0546 4.56291,-1.6535 8.53809,-8.1245 0.16233,-0.2642 0.30431,-0.4953 0.42592,-0.6933 l 47.45975,-77.2558 z"
         id="path3042"
         style="font-size:238.0644989px;font-style:normal;font-variant:normal;font-weight:bold;font-stretch:normal;text-align:start;line-height:125%;writing-mode:lr-tb;text-anchor:start;fill:#014c74;fill-opacity:1;font-family:Kenyan Coffee" />
      <path
         d="m 811.94006,2410.6941 -14.71527,20.4876 -5.8536,-4.2044 -24.20899,33.7054 -25.11383,-18.0381 24.20899,-33.7054 -9.06364,-6.5099 14.71526,-20.4876 9.06364,6.5099 40.00925,-55.7036 c 2.75775,-3.8394 3.91761,-6.4174 3.47959,-7.7338 -0.43792,-1.3164 -2.76546,-3.4891 -6.98262,-6.518 l 15.39339,-21.4317 8.49716,6.1031 c 10.57427,7.595 16.05521,14.7757 16.44284,21.5422 0.41689,5.9288 -3.26258,14.3061 -11.0384,25.1322 l -40.68737,56.6477 z"
         id="path3044"
         style="font-size:238.0644989px;font-style:normal;font-variant:normal;font-weight:bold;font-stretch:normal;text-align:start;line-height:125%;writing-mode:lr-tb;text-anchor:start;fill:#014c74;fill-opacity:1;font-family:Kenyan Coffee" />
      <path
         d="m 794.23235,2266.9488 -91.73733,100.5628 c -9.81864,10.7632 -17.91219,16.387 -24.28067,16.8714 -6.36824,0.4842 -14.87684,-4.1309 -25.52582,-13.845 -13.1105,-11.9602 -20.47443,-20.6184 -22.0918,-25.9747 -2.27999,-7.8494 2.22048,-17.9573 13.50142,-30.3236 l 91.73734,-100.5628 26.19271,23.894 -22.48387,24.6469 6.01144,5.4839 22.48387,-24.647 z m -116.19147,75.1079 47.3029,-52.1986 -6.01144,-5.4839 -47.64641,51.8853 c -3.55133,3.893 -4.32515,6.7536 -2.32147,8.5816 2.23295,2.0368 5.12508,1.1087 8.67642,-2.7844 z"
         id="path3046"
         style="font-size:238.0644989px;font-style:normal;font-variant:normal;font-weight:bold;font-stretch:normal;text-align:start;line-height:125%;writing-mode:lr-tb;text-anchor:start;fill:#014c74;fill-opacity:1;font-family:Kenyan Coffee" />
      <path
         d="m 653.99423,2274.3427 c -8.38535,7.7108 -15.3937,11.6813 -21.02508,11.9115 -5.63119,0.2301 -12.27601,-3.819 -19.93449,-12.1473 -7.39596,-8.0432 -11.94574,-13.3345 -13.64933,-15.8739 -5.01453,-7.2853 -6.53573,-13.5191 -4.56362,-18.7016 1.60718,-4.3203 5.8048,-9.6014 12.59288,-15.8435 l 10.86683,-9.9926 20.92937,22.7604 -9.49779,8.7337 c -2.79504,2.5703 -3.43202,4.6825 -1.91094,6.3368 1.52129,1.6543 3.96466,0.934 7.33014,-2.1608 4.33542,-3.9866 6.79748,-6.4611 7.38618,-7.4236 0.90164,-1.8818 0.76786,-5.233 -0.40132,-10.0535 l -3.67155,-14.4685 c -1.2031,-5.3156 -1.89912,-8.992 -2.08806,-11.0292 -0.2681,-4.0698 0.61902,-7.5701 2.66134,-10.501 2.04252,-2.9309 8.56844,-9.4582 19.5778,-19.5819 10.49611,-9.6516 18.68911,-14.0798 24.57901,-13.2845 5.2422,0.5488 12.76777,6.1568 22.57673,16.8239 9.33693,10.1538 14.23062,17.7082 14.68108,22.6631 0.78096,6.2303 -3.67729,13.804 -13.37474,22.7213 l -14.20389,13.0612 -20.92936,-22.7605 c 1.14093,-1.0491 2.98059,-2.7407 5.51898,-5.0749 2.5385,-2.3343 4.37816,-4.0259 5.51898,-5.075 3.76493,-3.462 4.88678,-6.0202 3.36556,-7.6744 -1.52114,-1.6543 -4.3353,-0.5931 -8.4425,3.1837 l -4.19271,3.8554 c -2.90917,2.6752 -4.57393,5.1008 -4.99427,7.277 -0.16909,1.4189 0.26137,4.2341 1.2914,8.4455 l 4.40626,18.5304 c 1.45634,5.8198 1.2236,10.7187 -0.69823,14.6967 -1.49028,2.8443 -4.80242,6.6269 -9.93642,11.3479 -1.1408,1.049 -2.76655,2.544 -4.87724,4.4849 -2.11972,2.1597 -3.75005,3.7642 -4.891,4.8133 z"
         id="path3048"
         style="font-size:238.0644989px;font-style:normal;font-variant:normal;font-weight:bold;font-stretch:normal;text-align:start;line-height:125%;writing-mode:lr-tb;text-anchor:start;fill:#014c74;fill-opacity:1;font-family:Kenyan Coffee" />
      <path
         d="m 597.09405,2211.3586 c -8.97824,7.0115 -16.28319,10.4056 -21.91485,10.1822 -5.63145,-0.2235 -11.92915,-4.7938 -18.8931,-13.711 -6.72522,-8.6119 -10.83476,-14.252 -12.32863,-16.9201 -4.41245,-7.6649 -5.42743,-14.0009 -3.04495,-19.008 1.94939,-4.177 6.5581,-9.1036 13.82615,-14.7796 l 11.63519,-9.0863 19.0313,24.3697 -10.16934,7.9417 c -2.99267,2.3371 -3.79744,4.3913 -2.41432,6.1626 1.38333,1.7712 3.87672,1.2497 7.48016,-1.5644 4.64196,-3.625 7.29503,-5.8936 7.95923,-6.8056 1.05004,-1.8032 1.18619,-5.1543 0.40843,-10.0532 l -2.49618,-14.7169 c -0.77175,-5.3951 -1.16988,-9.1156 -1.19439,-11.1614 0.06,-4.0781 1.22576,-7.4958 3.49717,-10.253 2.27158,-2.7571 9.30126,-8.7385 21.08907,-17.9442 11.23825,-8.7762 19.7608,-12.5312 25.56768,-11.2649 5.18109,0.9686 12.23132,7.1636 21.15072,18.5849 8.49017,10.8718 12.76053,18.7952 12.81108,23.7703 0.27742,6.2729 -4.77542,13.4636 -15.15855,21.5722 l -15.2082,11.8767 -19.03131,-24.3698 c 1.2216,-0.9539 3.19134,-2.4922 5.90921,-4.6147 2.71799,-2.1225 4.68772,-3.6608 5.90921,-4.6147 4.03114,-3.1481 5.35507,-5.6077 3.9718,-7.379 -1.38318,-1.7712 -4.27357,-0.9397 -8.67117,2.4945 l -4.48917,3.5058 c -3.11487,2.4326 -4.9693,4.7165 -5.56328,6.8519 -0.28264,1.4007 -0.08,4.2413 0.60808,8.5219 l 2.90186,18.8248 c 0.98364,5.918 0.35771,10.7823 -1.87779,14.5929 -1.71418,2.7153 -5.31977,6.2193 -10.81678,10.5121 -1.22147,0.9539 -2.96216,2.3133 -5.22209,4.0782 -2.28654,1.9823 -4.04061,3.4504 -5.26224,4.4044 z"
         id="path3050"
         style="font-size:238.0644989px;font-style:normal;font-variant:normal;font-weight:bold;font-stretch:normal;text-align:start;line-height:125%;writing-mode:lr-tb;text-anchor:start;fill:#014c74;fill-opacity:1;font-family:Kenyan Coffee" />
      <path
         d="m 606.84552,2103.2602 -58.2599,38.3434 c -12.49342,8.2224 -21.43936,11.7212 -26.83785,10.4964 -5.39827,-1.2249 -12.27262,-8.1812 -20.62307,-20.8689 -7.32771,-11.1341 -10.83619,-19.3547 -10.52548,-24.6618 0.44543,-6.2305 5.9762,-12.8392 16.59231,-19.8262 l 60.2019,-39.6215 c 11.52257,-7.5834 20.29618,-10.1107 26.32086,-7.5818 4.43848,1.8104 10.66245,8.8004 18.67193,20.9702 6.90181,10.4868 10.21941,18.2764 9.9528,23.3688 -0.2306,6.2748 -5.3951,12.7352 -15.4935,19.3814 z m -20.68868,-23.4001 c 3.56037,-2.3432 4.72278,-4.4535 3.48723,-6.3307 -1.32067,-2.0067 -4.57035,-1.306 -9.74906,2.1023 l -51.94841,34.1895 c -4.59595,3.0248 -6.25492,5.5083 -4.97692,7.4503 1.1e-4,0 0.0214,0.032 0.0639,0.097 1.23562,1.8772 5.28423,0.5579 12.14585,-3.9581 z"
         id="path3052"
         style="font-size:238.0644989px;font-style:normal;font-variant:normal;font-weight:bold;font-stretch:normal;text-align:start;line-height:125%;writing-mode:lr-tb;text-anchor:start;fill:#014c74;fill-opacity:1;font-family:Kenyan Coffee" />
      <path
         d="m 564.54614,2036.107 -65.76629,36.0035 c -11.55573,6.3261 -20.06283,8.377 -25.52133,6.1528 -4.44359,-1.9848 -9.80993,-8.721 -16.09904,-20.2088 -0.14872,-0.272 -0.31617,-0.5779 -0.50237,-0.9177 -6.54933,-11.9637 -9.75336,-20.2371 -9.6121,-24.8203 0.36681,-6.9151 6.12413,-13.4241 17.27197,-19.527 l 18.55731,-10.1592 14.84795,27.1223 -13.76503,7.5356 c -4.4183,2.4188 -6.10652,4.5799 -5.06467,6.4832 1.1e-4,0 0.0187,0.034 0.0558,0.102 1.07928,1.9712 3.4542,1.9521 7.12477,-0.057 0.20403,-0.1116 0.44195,-0.2418 0.71374,-0.3907 l 2.95694,-1.6187 52.61303,-28.8028 c 5.30213,-2.9026 7.41359,-5.3396 6.33437,-7.3109 -1.07913,-1.9712 -4.26976,-1.5056 -9.57189,1.397 l -23.34958,12.7826 -14.84795,-27.1222 29.16148,-15.9643 c 11.41994,-6.2517 20.10417,-7.737 26.05273,-4.4559 4.14108,2.2388 9.52355,9.4079 16.14742,21.5075 5.95408,10.8761 8.72768,18.7667 8.32081,23.6719 -0.44108,6.7792 -5.79377,12.9783 -16.05809,18.5975 z"
         id="path3054"
         style="font-size:238.0644989px;font-style:normal;font-variant:normal;font-weight:bold;font-stretch:normal;text-align:start;line-height:125%;writing-mode:lr-tb;text-anchor:start;fill:#014c74;fill-opacity:1;font-family:Kenyan Coffee" />
      <path
         d="m 551.12801,1954.6743 -117.52736,54.9208 -13.13966,-28.1181 117.52736,-54.9208 z m -134.58778,62.8932 -20.5357,9.5964 -13.13966,-28.1181 20.53569,-9.5964 z"
         id="path3056"
         style="font-size:238.0644989px;font-style:normal;font-variant:normal;font-weight:bold;font-stretch:normal;text-align:start;line-height:125%;writing-mode:lr-tb;text-anchor:start;fill:#014c74;fill-opacity:1;font-family:Kenyan Coffee" />
      <path
         d="m 506.28197,1926.0637 c -2.0942,0.8153 -5.34387,2.0805 -9.74902,3.7956 -4.40507,1.715 -7.65474,2.9802 -9.74902,3.7955 -9.02682,3.5144 -16.21209,3.9625 -21.55584,1.3444 -5.34362,-2.6182 -9.74454,-8.3685 -13.20279,-17.2509 l -3.87991,-9.9657 -19.06475,7.4224 c -5.19936,2.0243 -7.39143,4.0836 -6.5762,6.1778 0.78734,2.0221 6.34431,1.0228 16.67095,-2.9976 0.36117,-0.1406 0.72224,-0.2812 1.08322,-0.4218 l 11.42884,29.3554 -10.39895,4.0486 c -13.43188,5.2294 -22.69733,6.529 -27.79637,3.8987 -5.0988,-2.6303 -10.31921,-10.8058 -15.66124,-24.5267 -4.66698,-11.9877 -6.47384,-20.4735 -5.42058,-25.4575 1.42617,-6.3764 7.69974,-11.7295 18.82071,-16.0593 l 96.51531,-37.576 12.60968,32.3884 c 4.72337,12.1322 6.56633,20.604 5.52891,25.4154 -1.3698,6.5209 -7.90411,12.0586 -19.60295,16.6133 z m -16.51999,-27.3733 c 5.19951,-2.0242 6.99797,-5.0945 5.39536,-9.2108 l -22.2061,8.6454 c 1.60263,4.1163 5.36472,5.0217 11.28629,2.7163 z"
         id="path3058"
         style="font-size:238.0644989px;font-style:normal;font-variant:normal;font-weight:bold;font-stretch:normal;text-align:start;line-height:125%;writing-mode:lr-tb;text-anchor:start;fill:#014c74;fill-opacity:1;font-family:Kenyan Coffee" />
      <path
         d="m 405.8244,1875.6236 -24.10454,7.4332 -2.12376,-6.887 -39.65586,12.2287 -9.11161,-29.5475 39.65586,-12.2287 -3.28839,-10.6638 24.10454,-7.4332 3.2884,10.6638 65.5377,-20.2099 c 4.51733,-1.393 6.99919,-2.7463 7.4456,-4.0599 0.44648,-1.3135 -0.0953,-4.4511 -1.62537,-9.4127 l 25.21536,-7.7757 3.08287,9.9972 c 3.83647,12.4411 3.86487,21.4745 0.0852,27.1003 -3.2502,4.976 -11.24393,9.4279 -23.98122,13.3557 l -66.64852,20.5525 z"
         id="path3060"
         style="font-size:238.0644989px;font-style:normal;font-variant:normal;font-weight:bold;font-stretch:normal;text-align:start;line-height:125%;writing-mode:lr-tb;text-anchor:start;fill:#014c74;fill-opacity:1;font-family:Kenyan Coffee" />
      <path
         d="m 488.3199,1786.8097 -125.80583,31.6523 -7.57274,-30.0987 125.80584,-31.6523 z m -144.06797,36.247 -21.9822,5.5306 -7.57274,-30.0987 21.9822,-5.5306 z"
         id="path3062"
         style="font-size:238.0644989px;font-style:normal;font-variant:normal;font-weight:bold;font-stretch:normal;text-align:start;line-height:125%;writing-mode:lr-tb;text-anchor:start;fill:#014c74;fill-opacity:1;font-family:Kenyan Coffee" />
      <path
         d="m 450.776,1750.5445 -68.58905,12.648 c -14.70842,2.7122 -24.31076,2.4538 -28.80702,-0.7754 -4.49602,-3.2292 -8.12131,-12.3123 -10.8759,-27.2495 -2.41703,-13.1081 -2.44978,-22.046 -0.0982,-26.8138 2.83501,-5.566 10.50167,-9.5014 22.99999,-11.8062 l 70.87535,-13.0696 c 13.56541,-2.5014 22.6309,-1.4151 27.19649,3.2591 3.38408,3.3949 6.39713,12.256 9.03915,26.5835 2.27664,12.346 2.30128,20.8126 0.0739,25.3998 -2.65434,5.6904 -9.9259,9.6317 -21.81468,11.8241 z m -9.95125,-29.6068 c 4.19158,-0.7729 6.08358,-2.2644 5.676,-4.4746 -0.43562,-2.3624 -3.70184,-2.9815 -9.79868,-1.8573 l -61.15857,11.2778 c -5.4108,0.9978 -7.90546,2.6398 -7.48397,4.9261 1.1e-4,0 0.007,0.038 0.0211,0.1143 0.40766,2.2101 4.65056,2.5704 12.72872,1.0807 z"
         id="path3064"
         style="font-size:238.0644989px;font-style:normal;font-variant:normal;font-weight:bold;font-stretch:normal;text-align:start;line-height:125%;writing-mode:lr-tb;text-anchor:start;fill:#014c74;fill-opacity:1;font-family:Kenyan Coffee" />
      <path
         d="m 464.00894,1668.4097 -129.09515,12.7836 -3.08135,-31.117 4.9741,-0.4926 c -4.53767,-4.1452 -7.07385,-8.9169 -7.60854,-14.3152 -0.93916,-9.4854 2.59136,-16.2985 10.59158,-20.4394 5.0303,-2.6785 12.7894,-4.5371 23.2773,-5.5757 0.38569,-0.038 0.73272,-0.072 1.04109,-0.1031 l 93.11972,-9.2212 3.06989,31.0014 -90.2278,8.9348 c -8.02014,0.7942 -11.95809,2.3133 -11.81386,4.5573 0.19866,2.0051 4.0767,2.6335 11.63414,1.8851 0.30857,-0.031 0.57848,-0.057 0.80974,-0.08 l 90.22779,-8.9348 z"
         id="path3066"
         style="font-size:238.0644989px;font-style:normal;font-variant:normal;font-weight:bold;font-stretch:normal;text-align:start;line-height:125%;writing-mode:lr-tb;text-anchor:start;fill:#014c74;fill-opacity:1;font-family:Kenyan Coffee" />
      <path
         d="M 420.30589,1548.6361 317.942,1545.5774 c -16.49891,-0.493 -26.84958,-4.3687 -31.05204,-11.627 -2.57438,-4.6511 -3.59548,-15.8846 -3.0633,-33.7006 0.43069,-14.4075 2.9782,-23.7706 7.64255,-28.0893 4.66468,-4.3184 14.27821,-6.2602 28.84061,-5.8251 l 38.57527,1.1527 -1.06587,35.6705 -36.12832,-1.3122 c -5.26717,-0.1573 -7.94364,1.197 -8.02942,4.063 -0.0809,2.7112 2.51228,4.1454 7.77944,4.3028 l 97.48389,2.9129 c 5.26734,0.1574 7.9415,-1.1195 8.02248,-3.8306 0.0671,-2.2463 -1.55774,-3.6516 -4.87468,-4.216 -0.15489,0 -2.59489,-0.078 -7.32001,-0.2187 l -31.72002,-0.9478 1.06587,-35.6705 38.57526,1.1526 c 14.56257,0.4353 24.08232,2.9293 28.55927,7.4822 4.47696,4.553 6.49903,14.072 6.0662,28.5571 -0.53004,17.7384 -2.29751,28.8886 -5.30242,33.4506 -4.47326,6.999 -15.03687,10.2497 -31.69087,9.7521 z"
         id="path3068"
         style="font-size:238.0644989px;font-style:normal;font-variant:normal;font-weight:bold;font-stretch:normal;text-align:start;line-height:125%;writing-mode:lr-tb;text-anchor:start;fill:#014c74;fill-opacity:1;font-family:Kenyan Coffee" />
      <path
         d="m 431.4072,1457.9441 -69.26916,-8.1371 c -14.85427,-1.745 -23.95355,-4.8231 -27.29784,-9.2344 -3.34406,-4.4112 -4.1301,-14.1595 -2.35814,-29.2448 1.55522,-13.2381 4.1592,-21.7883 7.81195,-25.6508 4.35007,-4.4827 12.83623,-5.9827 25.45851,-4.5001 l 71.57813,8.4084 c 13.6999,1.6094 22.04209,5.3204 25.0266,11.1329 2.23269,4.2417 2.49915,13.5973 0.7994,28.0668 -1.46469,12.4685 -3.93745,20.566 -7.4183,24.2926 -4.21411,4.6548 -12.32448,6.277 -24.33115,4.8665 z m -0.77958,-31.2247 c 4.23314,0.4973 6.48079,-0.37 6.74296,-2.6021 0.2803,-2.3859 -2.65818,-3.9405 -8.81546,-4.6638 l -61.765,-7.2557 c -5.46447,-0.6418 -8.33237,0.1917 -8.60371,2.5006 10e-5,10e-5 -0.004,0.039 -0.0136,0.1155 -0.2621,2.232 3.68598,3.8272 11.84426,4.7855 z"
         id="path3070"
         style="font-size:238.0644989px;font-style:normal;font-variant:normal;font-weight:bold;font-stretch:normal;text-align:start;line-height:125%;writing-mode:lr-tb;text-anchor:start;fill:#014c74;fill-opacity:1;font-family:Kenyan Coffee" />
      <path
         d="m 467.41924,1383.1805 -126.58619,-28.3711 6.73684,-30.0585 6.91914,1.5507 c -4.45364,-5.2866 -5.94328,-11.2194 -4.46892,-17.7983 0.0171,-0.076 0.034,-0.1512 0.0509,-0.2269 1.49154,-6.6544 5.3539,-11.3082 11.58709,-13.9616 -4.5371,-5.623 -6.02609,-11.913 -4.46698,-18.8701 0.0171,-0.075 0.034,-0.1511 0.0508,-0.2268 3.71172,-16.5605 18.95208,-21.8409 45.72111,-15.8415 l 87.79365,19.6767 -6.81311,30.3988 -87.79365,-19.6766 c -8.54487,-1.9151 -13.06308,-1.7761 -13.55466,0.4167 -0.5253,2.3443 3.48447,4.4739 12.02934,6.389 l 87.79365,19.6766 -6.76226,30.172 -87.79366,-19.6766 c -8.54486,-1.9151 -13.06307,-1.7762 -13.55465,0.4167 -0.50835,2.2686 3.24523,4.3011 11.26075,6.0976 0.22694,0.051 0.49161,0.1102 0.794,0.1779 l 87.79365,19.6767 z"
         id="path3072"
         style="font-size:238.0644989px;font-style:normal;font-variant:normal;font-weight:bold;font-stretch:normal;text-align:start;line-height:125%;writing-mode:lr-tb;text-anchor:start;fill:#014c74;fill-opacity:1;font-family:Kenyan Coffee" />
      <path
         d="m 524.79784,1277.888 -153.34032,-51.6628 9.9837,-29.6326 4.95712,1.6702 c -2.23597,-5.7416 -2.43852,-11.3297 -0.60767,-16.7642 4.60225,-13.6596 16.96444,-17.0996 37.08659,-10.3202 l 60.25658,20.3014 c 10.208,3.4393 17.52358,7.0898 21.94677,10.9514 6.5242,5.8781 8.32649,13.15 5.40686,21.8157 -1.78149,5.2877 -5.17664,9.4183 -10.18547,12.3918 l 34.47954,11.6168 z m -50.71351,-50.0824 c 3.15788,1.064 5.05847,0.6412 5.70177,-1.2682 0.71755,-2.1297 -1.45732,-4.0482 -6.52461,-5.7555 l -58.49405,-19.7076 c -3.7453,-1.2618 -5.97675,-0.8279 -6.69438,1.3018 -0.64322,1.9095 1.97267,3.8539 7.8477,5.8332 0.22039,0.074 0.44071,0.1486 0.66095,0.2227 l 54.6385,18.4086 c 0.29378,0.099 0.73441,0.2475 1.3219,0.4454 0.58753,0.198 1.1016,0.3712 1.54222,0.5196 z"
         id="path3074"
         style="font-size:238.0644989px;font-style:normal;font-variant:normal;font-weight:bold;font-stretch:normal;text-align:start;line-height:125%;writing-mode:lr-tb;text-anchor:start;fill:#014c74;fill-opacity:1;font-family:Kenyan Coffee" />
      <path
         d="m 486.65064,1180.5827 -85.64608,-37.1161 12.38743,-28.5842 81.69975,35.4058 c 8.03489,3.4821 12.43277,4.2478 13.19364,2.2971 0.95526,-2.2042 -2.549,-5.0319 -10.51278,-8.4832 l -81.69975,-35.4059 12.29499,-28.3709 119.02992,51.5835 -12.29498,28.3709 -4.7996,-2.08 c 1.68503,6.0512 1.44905,11.5655 -0.70795,16.5428 -3.72857,8.6037 -10.02392,12.8012 -18.88608,12.5923 -5.87096,-0.095 -13.89046,-2.3456 -24.05851,-6.7521 z"
         id="path3076"
         style="font-size:238.0644989px;font-style:normal;font-variant:normal;font-weight:bold;font-stretch:normal;text-align:start;line-height:125%;writing-mode:lr-tb;text-anchor:start;fill:#014c74;fill-opacity:1;font-family:Kenyan Coffee" />
      <path
         d="m 458.05777,1077.2953 -22.36681,-11.6622 3.33206,-6.3905 -36.79699,-19.1862 14.2956,-27.4174 36.797,19.1862 5.15931,-9.895 22.36681,11.6623 -5.15932,9.8949 60.81296,31.7083 c 4.19164,2.1856 6.90796,2.9683 8.14898,2.3481 1.24103,-0.6201 3.0618,-3.2322 5.46231,-7.8361 l 23.39753,12.1996 -4.83686,9.2766 c -6.01921,11.5441 -12.35041,17.9877 -18.99361,19.3307 -5.80979,1.2531 -14.62419,-1.2015 -26.44322,-7.3641 l -61.8437,-32.2457 z"
         id="path3078"
         style="font-size:238.0644989px;font-style:normal;font-variant:normal;font-weight:bold;font-stretch:normal;text-align:start;line-height:125%;writing-mode:lr-tb;text-anchor:start;fill:#014c74;fill-opacity:1;font-family:Kenyan Coffee" />
      <path
         d="m 555.51249,1058.9898 -4.4578,-2.7368 -59.2392,-36.3699 c -10.9628,-6.7306 -16.72422,-13.2687 -17.28431,-19.6143 -0.42657,-5.0814 2.84706,-13.30171 9.8209,-24.66093 7.05512,-11.4911 12.71377,-18.33807 16.97596,-20.54091 6.10443,-2.98127 14.57201,-1.14719 25.40275,5.50226 l 41.40801,25.42244 -19.82707,32.29424 17.23682,10.5826 c 4.88708,3.0005 7.91853,3.5431 9.09436,1.6278 1.17584,-1.9151 -3.32143,-5.9948 -13.49182,-12.239 l 16.29956,-26.54863 9.60903,5.89947 c 12.28369,7.54166 18.90566,14.08516 19.86591,19.63056 0.96019,5.5456 -2.45212,14.6583 -10.23696,27.3382 -6.73067,10.9629 -12.3262,17.4849 -16.78659,19.5659 -6.02327,2.8494 -14.15311,1.1317 -24.38955,-5.153 z m -29.88601,-54.6315 3.52751,-5.74557 -15.65183,-9.60944 c -3.23596,-1.98667 -5.4419,-2.02245 -6.6178,-0.10734 -1.17577,1.91529 -0.14568,3.86627 3.09029,5.85295 z"
         id="path3080"
         style="font-size:238.0644989px;font-style:normal;font-variant:normal;font-weight:bold;font-stretch:normal;text-align:start;line-height:125%;writing-mode:lr-tb;text-anchor:start;fill:#014c74;fill-opacity:1;font-family:Kenyan Coffee" />
      <path
         d="m 619.72935,1006.4642 -104.88382,-76.34371 17.51254,-24.05938 2.91344,2.12066 c -0.24288,-5.0651 1.14063,-9.66531 4.15051,-13.80062 5.42714,-7.45578 12.56718,-10.02249 21.42017,-7.70016 5.4463,1.47229 12.46127,5.33234 21.04491,11.58018 0.3133,0.22815 0.62658,0.45617 0.93982,0.68409 l 17.19869,12.51872 -16.07596,22.08576 -15.78897,-11.49261 c -6.2654,-4.56046 -10.13634,-5.89239 -11.61283,-3.9958 -1.27689,1.75442 1.02939,4.77504 6.91887,9.06188 0.18801,0.1369 0.40731,0.29652 0.65787,0.47886 l 73.86979,53.76895 z"
         id="path3082"
         style="font-size:238.0644989px;font-style:normal;font-variant:normal;font-weight:bold;font-stretch:normal;text-align:start;line-height:125%;writing-mode:lr-tb;text-anchor:start;fill:#014c74;fill-opacity:1;font-family:Kenyan Coffee" />
      <path
         d="m 686.39588,919.27276 -99.16717,-93.24428 c -10.61386,-9.97993 -16.1149,-18.15741 -16.50313,-24.53248 -0.388,-6.37482 4.35486,-14.81281 14.22862,-25.314 12.15661,-12.92855 20.92497,-20.161 26.3051,-21.69736 7.88288,-2.16129 17.92167,2.49118 30.11638,13.95743 l 99.16717,93.24428 -24.28651,25.8292 -24.30485,-22.85321 -5.57395,5.92801 24.30485,22.85321 z m -73.3462,-117.31155 51.4789,48.08514 5.57396,-5.92801 -51.16039,-48.42388 c -3.83903,-3.60967 -6.68757,-4.42657 -8.54562,-2.4507 -2.07025,2.20197 -1.18587,5.10778 2.65315,8.71745 z"
         id="path3084"
         style="font-size:238.0644989px;font-style:normal;font-variant:normal;font-weight:bold;font-stretch:normal;text-align:start;line-height:125%;writing-mode:lr-tb;text-anchor:start;fill:#014c74;fill-opacity:1;font-family:Kenyan Coffee" />
      <path
         d="m 749.42831,853.41681 -86.12155,-97.01576 23.38462,-20.75869 3.3183,3.73807 c 0.6927,-6.10681 3.06743,-10.9609 7.12419,-14.56229 7.12844,-6.32779 14.71676,-7.46831 22.765,-3.42158 5.12111,2.50054 11.18002,7.69163 18.17674,15.57331 0.25724,0.28989 0.48875,0.55069 0.69453,0.78239 l 62.12173,69.98 -23.29769,20.68152 -60.19249,-67.80671 c -5.35041,-6.02716 -8.89169,-8.32379 -10.62385,-6.8899 -1.50678,1.33771 0.2607,4.84628 5.30242,10.52572 0.20582,0.23191 0.38588,0.43475 0.54019,0.60852 l 60.19248,67.80671 z"
         id="path3086"
         style="font-size:238.0644989px;font-style:normal;font-variant:normal;font-weight:bold;font-stretch:normal;text-align:start;line-height:125%;writing-mode:lr-tb;text-anchor:start;fill:#014c74;fill-opacity:1;font-family:Kenyan Coffee" />
      <path
         d="m 786.85465,770.61762 -34.28328,-45.92176 c -6.62944,-8.87998 -10.57364,-16.04148 -11.83261,-21.48451 -2.05844,-8.32741 0.73136,-15.34231 8.3694,-21.04472 4.59533,-3.43052 9.7986,-4.94569 15.6098,-4.54552 l -27.39881,-36.70015 24.77726,-18.49768 102.43262,137.20639 -24.77726,18.49768 -3.12931,-4.19164 c -1.54786,6.08772 -4.49522,10.75417 -8.84208,13.99936 -7.63812,5.7023 -15.34208,6.13478 -23.11191,1.29743 -4.82914,-2.97095 -10.76707,-9.17591 -17.81382,-18.61488 z m 25.95944,-16.91417 c 3.29156,4.40903 5.80672,5.96448 7.54548,4.66635 -10e-6,5e-5 0.031,-0.0231 0.0932,-0.0695 -10e-6,5e-5 0.031,-0.0231 0.0932,-0.0695 1.86293,-1.39075 1.14863,-4.29064 -2.14292,-8.69968 l -34.49191,-46.2012 c -3.98694,-5.34036 -6.94295,-7.292 -8.86803,-5.85495 -1.80082,1.34455 -0.70776,4.687 3.27917,10.02736 z"
         id="path3088"
         style="font-size:238.0644989px;font-style:normal;font-variant:normal;font-weight:bold;font-stretch:normal;text-align:start;line-height:125%;writing-mode:lr-tb;text-anchor:start;fill:#014c74;fill-opacity:1;font-family:Kenyan Coffee" />
      <path
         d="m 839.04278,613.31373 c -7.78246,-13.84949 -10.32355,-24.06641 -7.62329,-30.6508 2.20177,-5.41497 10.36254,-12.08972 24.48234,-20.02427 14.11989,-7.9342 23.92146,-11.53083 29.40474,-10.7899 7.2225,0.83071 14.64907,8.03565 22.27975,21.61486 l 11.78768,20.97711 -31.11098,17.48222 -9.22514,-16.41687 c -3.49262,-6.21529 -6.42123,-8.65865 -8.78583,-7.33007 -1.95918,1.10109 -1.32758,4.8352 1.8948,11.20236 3e-5,1.3e-4 -0.019,-0.0336 -0.057,-0.10134 l 6.26399,11.14725 c 2.01209,3.58076 6.23687,5.56243 12.67435,5.94502 5.10367,0.0657 10.20315,0.0446 15.29845,-0.063 11.31337,0.043 19.28482,1.6527 23.91437,4.82909 4.22025,2.60655 9.08275,8.8078 14.58751,18.60377 l 14.80579,26.34806 c 6.98523,12.43094 8.57886,22.06912 4.78091,28.91457 -2.64059,4.95062 -10.68298,11.20328 -24.12719,18.758 -13.57941,7.63069 -23.35975,10.94871 -29.34106,9.95408 -6.95226,-0.98236 -14.16779,-8.12812 -21.64661,-21.43729 l -17.25444,-30.70562 30.9083,-17.36833 14.35023,25.53735 c 3.49263,6.21549 6.28611,8.73477 8.38047,7.55786 2.49966,-1.40461 1.88929,-5.41732 -1.83111,-12.03817 -1.02504,-1.82404 -2.5246,-4.49262 -4.49868,-8.00576 -1.97412,-3.513 -3.47368,-6.18159 -4.49869,-8.00576 -2.65746,-4.72906 -4.80076,-7.43591 -6.42993,-8.12057 -0.92011,-0.3718 -4.3499,-0.62234 -10.28938,-0.75164 -8.36262,-0.012 -13.7111,-0.11771 -16.04548,-0.31721 -6.91876,-0.28997 -12.15723,-0.99087 -15.71544,-2.10273 -6.24253,-2.09222 -12.66664,-9.016 -19.27235,-20.77139 -0.8731,-1.55375 -2.16386,-3.85076 -3.87228,-6.89103 -1.91934,-3.09924 -3.31563,-5.42584 -4.18885,-6.97982 z"
         id="path3090"
         style="font-size:238.0644989px;font-style:normal;font-variant:normal;font-weight:bold;font-stretch:normal;text-align:start;line-height:125%;writing-mode:lr-tb;text-anchor:start;fill:#014c74;fill-opacity:1;font-family:Kenyan Coffee" />
      <path
         d="m 973.36307,664.81311 -2.15136,-4.76802 -28.58922,-63.36174 c -5.29072,-11.7257 -6.38593,-20.37099 -3.28563,-25.93589 2.50081,-4.44395 9.826,-9.40698 21.9756,-14.8891 12.29092,-5.5456 20.8182,-8.03287 25.58189,-7.46184 6.72514,0.96157 12.70122,7.23455 17.92825,18.81894 l 19.9838,44.28965 -34.54171,15.58542 8.3186,18.43636 c 2.35851,5.22721 4.56201,7.37865 6.61051,6.45432 2.0485,-0.92425 0.6186,-6.82547 -4.2897,-17.70367 l 28.3962,-12.81256 4.6374,10.27774 c 5.9281,13.1386 7.7323,22.27168 5.4125,27.39926 -2.3199,5.12765 -10.2611,10.75117 -23.8234,16.87058 -11.7258,5.29077 -20.01838,7.5446 -24.87767,6.7615 -6.58388,-1.02516 -12.3459,-7.01214 -17.28606,-17.96095 z m 5.95357,-61.98652 6.14545,-2.77287 -7.55367,-16.74106 c -1.56173,-3.46112 -3.36683,-4.72959 -5.41532,-3.80541 -2.04848,0.9244 -2.29185,3.11715 -0.73013,6.57828 z"
         id="path3092"
         style="font-size:238.0644989px;font-style:normal;font-variant:normal;font-weight:bold;font-stretch:normal;text-align:start;line-height:125%;writing-mode:lr-tb;text-anchor:start;fill:#014c74;fill-opacity:1;font-family:Kenyan Coffee" />
      <path
         d="m 1046.0221,632.88011 -25.1554,-70.63046 c -4.42,-12.41041 -5.1005,-21.13475 -2.0414,-26.17304 2.6622,-4.07401 10.162,-8.30811 22.4995,-12.70231 0.292,-0.10386 0.6205,-0.22086 0.9856,-0.351 12.8485,-4.57593 21.5243,-6.43193 26.0275,-5.568 6.7702,1.45525 12.2874,8.16905 16.5515,20.14142 l 7.0981,19.92983 -29.1282,10.37417 -5.2651,-14.78312 c -1.69,-4.74509 -3.5571,-6.75368 -5.6012,-6.02578 0,1.1e-4 -0.036,0.0131 -0.1095,0.039 -2.1171,0.75412 -2.4736,3.10221 -1.0696,7.04426 0.078,0.21912 0.169,0.47463 0.273,0.76653 l 1.131,3.17564 20.1244,56.50436 c 2.028,5.69428 4.1005,8.16439 6.2176,7.41034 2.1171,-0.75397 2.1616,-3.97809 0.1336,-9.67237 l -8.9311,-25.07655 29.1282,-10.37417 11.1542,31.31832 c 4.368,12.26455 4.4619,21.07438 0.2818,26.42953 -2.8652,3.73514 -10.7951,7.91673 -23.7895,12.54479 -11.6806,4.16007 -19.9104,5.65156 -24.6895,4.47447 -6.6243,-1.5071 -11.8994,-7.77238 -15.8255,-18.79586 z"
         id="path3094"
         style="font-size:238.0644989px;font-style:normal;font-variant:normal;font-weight:bold;font-stretch:normal;text-align:start;line-height:125%;writing-mode:lr-tb;text-anchor:start;fill:#014c74;fill-opacity:1;font-family:Kenyan Coffee" />
      <path
         d="m 1117.9926,597.1821 -23.894,-90.23266 30.115,-7.97458 22.793,86.07499 c 2.2416,8.46521 4.3638,12.39252 6.3666,11.78197 2.3223,-0.61492 2.3726,-5.11752 0.1508,-13.50781 l -22.793,-86.07499 29.8903,-7.91506 33.2075,125.40428 -29.8902,7.91507 -1.339,-5.05662 c -3.7079,5.07032 -8.1837,8.29977 -13.4276,9.68837 -9.0645,2.40031 -16.2587,0.0566 -21.5827,-7.03119 -3.5611,-4.66861 -6.76,-12.35919 -9.5967,-23.07177 z"
         id="path3096"
         style="font-size:238.0644989px;font-style:normal;font-variant:normal;font-weight:bold;font-stretch:normal;text-align:start;line-height:125%;writing-mode:lr-tb;text-anchor:start;fill:#014c74;fill-opacity:1;font-family:Kenyan Coffee" />
      <path
         d="m 1205.9314,612.25502 -22.9939,-127.67246 29.2869,-5.2746 0.6387,3.54646 c 3.3264,-3.82738 7.5065,-6.19442 12.5402,-7.10113 9.0759,-1.63444 16.009,1.44769 20.7996,9.24637 2.9169,4.82921 5.3163,12.46809 7.1982,22.91668 0.069,0.38144 0.1373,0.76278 0.206,1.14402 l 3.7706,20.93554 -26.8845,4.84191 -3.4614,-19.21951 c -1.3737,-7.62668 -3.2495,-11.2653 -5.6275,-10.91586 -2.1355,0.38471 -2.5577,4.1616 -1.2665,11.33068 0.041,0.2289 0.089,0.49584 0.1443,0.80081 l 16.1946,89.91985 z"
         id="path3098"
         style="font-size:238.0644989px;font-style:normal;font-variant:normal;font-weight:bold;font-stretch:normal;text-align:start;line-height:125%;writing-mode:lr-tb;text-anchor:start;fill:#014c74;fill-opacity:1;font-family:Kenyan Coffee" />
      <path
         d="m 1277.0019,600.31004 -15.1482,-128.83909 30.8244,-3.62416 15.1482,128.83909 z m -17.3471,-147.54154 -2.6469,-22.5122 30.8244,-3.62416 2.6469,22.5122 z"
         id="path3100"
         style="font-size:238.0644989px;font-style:normal;font-variant:normal;font-weight:bold;font-stretch:normal;text-align:start;line-height:125%;writing-mode:lr-tb;text-anchor:start;fill:#014c74;fill-opacity:1;font-family:Kenyan Coffee" />
      <path
         d="m 1308.4225,491.45958 -1.6405,-25.17121 7.1918,-0.46872 -2.699,-41.41069 30.855,-2.011 2.699,41.41069 11.1356,-0.72577 1.6406,25.1712 -11.1357,0.72577 4.4605,68.43783 c 0.3074,4.71722 1.0483,7.44525 2.2225,8.18412 1.1742,0.73892 4.3519,0.93952 9.5331,0.60181 l 1.7161,26.33116 -10.4396,0.68041 c -12.9916,0.84674 -21.7854,-1.22054 -26.3813,-6.20183 -4.0866,-4.31555 -6.5633,-13.12377 -7.4302,-26.42471 l -4.5361,-69.59779 z"
         id="path3102"
         style="font-size:238.0644989px;font-style:normal;font-variant:normal;font-weight:bold;font-stretch:normal;text-align:start;line-height:125%;writing-mode:lr-tb;text-anchor:start;fill:#014c74;fill-opacity:1;font-family:Kenyan Coffee" />
      <path
         d="m 1374.6735,562.77238 0.01,-1.16241 0.5144,-98.33975 30.6875,0.16051 -0.507,96.94486 c -0.021,3.95221 1.1701,5.93459 3.5725,5.94713 2.5572,0.0134 3.8462,-1.95601 3.8669,-5.90822 l 0.5071,-96.94486 30.4551,0.15929 -0.6773,129.49229 c -0.112,21.38829 -12.6446,32.05593 -37.598,32.00295 l -28.7115,-0.15017 0.135,-25.80547 27.5491,0.14409 c 3.0222,0.0158 5.1357,-0.32188 6.3406,-1.01303 1.2047,-0.69117 1.8142,-2.39289 1.8285,-5.10518 0,-0.46496 -0.071,-1.25968 -0.2201,-2.38415 -0.1491,-1.12447 -0.2224,-1.91919 -0.22,-2.38415 -5.1361,4.08042 -10.2229,6.14621 -15.2604,6.19736 -8.9118,-0.0466 -15.2454,-4.07078 -19.0008,-12.07252 -2.2234,-4.58388 -3.3127,-11.17673 -3.2677,-19.77857 z"
         id="path3104"
         style="font-size:238.0644989px;font-style:normal;font-variant:normal;font-weight:bold;font-stretch:normal;text-align:start;line-height:125%;writing-mode:lr-tb;text-anchor:start;fill:#014c74;fill-opacity:1;font-family:Kenyan Coffee" />
      <path
         d="m 1510.5394,459.98847 c 2.1158,-15.74479 6.2328,-25.43463 12.3511,-29.06954 5.0165,-3.00071 15.5508,-3.4226 31.603,-1.26568 16.0521,2.15726 26.0452,5.18125 29.9794,9.07198 5.2694,5.0088 6.8668,15.23198 4.7924,30.66956 l -3.2046,23.84782 -35.3686,-4.75282 2.508,-18.66351 c 0.9495,-7.0659 0.08,-10.77952 -2.6079,-11.14089 -2.2274,-0.29917 -3.9694,3.06354 -5.2261,10.08814 -10e-5,1.3e-4 0.01,-0.0383 0.015,-0.1152 l -1.703,12.67275 c -0.5471,4.07075 1.6353,8.19541 6.5473,12.37398 4.0372,3.12295 8.1232,6.17415 12.258,9.15362 9.0109,6.84078 14.4099,12.92241 16.1969,18.2449 1.8029,4.62108 1.9561,12.49991 0.4596,23.63651 l -4.0252,29.95379 c -1.8991,14.13205 -6.4248,22.78958 -13.5769,25.97262 -5.0877,2.36579 -15.2735,2.52175 -30.5576,0.46788 -15.4377,-2.07453 -25.2462,-5.30829 -29.4256,-9.7013 -4.9623,-4.96735 -6.4268,-15.01628 -4.3935,-30.1468 l 4.6909,-34.90769 35.1381,4.72187 -3.9014,29.03213 c -0.9495,7.06605 -0.2338,10.75903 2.1471,11.07896 2.8418,0.3819 4.7684,-3.19058 5.7799,-10.71746 0.2786,-2.07369 0.6863,-5.10747 1.223,-9.10134 0.5367,-3.99379 0.9443,-7.02757 1.2231,-9.10135 0.7224,-5.37626 0.6389,-8.82791 -0.2506,-10.35494 -0.5112,-0.85055 -3.1001,-3.11414 -7.7667,-6.79077 -6.6726,-5.04075 -10.8813,-8.343 -12.6259,-9.90678 -5.3521,-4.39413 -9.1148,-8.10561 -11.288,-11.13445 -3.7277,-5.42689 -4.6936,-14.82238 -2.8977,-28.18648 0.2373,-1.76639 0.5883,-4.37774 1.0527,-7.83407 0.3315,-3.63033 0.6159,-6.3288 0.8533,-8.09544 z"
         id="path3106"
         style="font-size:238.0644989px;font-style:normal;font-variant:normal;font-weight:bold;font-stretch:normal;text-align:start;line-height:125%;writing-mode:lr-tb;text-anchor:start;fill:#014c74;fill-opacity:1;font-family:Kenyan Coffee" />
      <path
         d="m 1598.7397,505.16205 5.2601,-24.67007 7.0486,1.50288 8.6537,-40.58625 30.2407,6.44784 -8.6536,40.58625 10.9139,2.32704 -5.2601,24.67007 -10.9139,-2.32704 -14.3016,67.0753 c -0.9858,4.6233 -1.0141,7.44999 -0.085,8.4801 0.9292,1.03015 3.9329,2.08657 9.0109,3.16928 l -5.5024,25.80694 -10.2319,-2.1816 c -12.7329,-2.71489 -20.6342,-7.09363 -23.7038,-13.13624 -2.7604,-5.26352 -2.7508,-14.41332 0.029,-27.44945 l 14.544,-68.21217 z"
         id="path3108"
         style="font-size:238.0644989px;font-style:normal;font-variant:normal;font-weight:bold;font-stretch:normal;text-align:start;line-height:125%;writing-mode:lr-tb;text-anchor:start;fill:#014c74;fill-opacity:1;font-family:Kenyan Coffee" />
      <path
         d="m 1645.205,584.76317 25.9698,-89.65726 29.923,8.66737 -24.7732,85.52611 c -2.4364,8.4112 -2.6389,12.87064 -0.6076,13.37833 2.3075,0.66839 4.6686,-3.16579 7.0835,-11.50256 l 24.7731,-85.5261 29.6997,8.6027 -36.0925,124.60461 -29.6997,-8.6027 1.4554,-5.02438 c -5.7891,2.43787 -11.2888,2.90218 -16.4993,1.39295 -9.0066,-2.60884 -13.9676,-8.32188 -14.8829,-17.13912 -0.6494,-5.83572 0.5675,-14.07569 3.6507,-24.71995 z"
         id="path3110"
         style="font-size:238.0644989px;font-style:normal;font-variant:normal;font-weight:bold;font-stretch:normal;text-align:start;line-height:125%;writing-mode:lr-tb;text-anchor:start;fill:#014c74;fill-opacity:1;font-family:Kenyan Coffee" />
      <path
         d="m 1724.8754,607.09522 20.5602,-53.49235 c 3.9758,-10.34393 7.93,-17.49988 11.8628,-21.46787 5.9463,-6.18262 13.3681,-7.56411 22.2654,-4.14449 5.3528,2.05752 9.4096,5.65083 12.1705,10.77993 l 16.4315,-42.75047 28.862,11.09331 -61.4303,159.82603 -28.862,-11.09332 1.8767,-4.88266 c -5.9751,1.93754 -11.4944,1.93321 -16.5579,-0.013 -8.8973,-3.41975 -13.372,-9.70584 -13.4242,-18.8583 -0.062,-5.6695 2.0193,-14.00177 6.2453,-24.99684 z m 28.1531,12.93787 c -1.9741,5.13586 -1.9484,8.09302 0.077,8.87149 -10e-5,10e-6 0.036,0.0139 0.1085,0.0417 -10e-5,10e-6 0.036,0.0139 0.1085,0.0417 2.17,0.8341 4.2421,-1.31678 6.2161,-6.45264 l 20.6853,-53.81786 c 2.3909,-6.2208 2.4652,-9.76218 0.2229,-10.62415 -2.0978,-0.8062 -4.3422,1.9011 -6.7332,8.1219 z"
         id="path3112"
         style="font-size:238.0644989px;font-style:normal;font-variant:normal;font-weight:bold;font-stretch:normal;text-align:start;line-height:125%;writing-mode:lr-tb;text-anchor:start;fill:#014c74;fill-opacity:1;font-family:Kenyan Coffee" />
      <path
         d="m 1797.8707,647.63529 2.2768,-4.70942 30.2558,-62.58306 c 5.5991,-11.58161 11.5275,-17.96871 17.7851,-19.16133 5.0132,-0.93321 13.5199,1.50091 25.5203,7.30237 12.1398,5.86911 19.5189,10.81377 22.1374,14.83399 3.5775,5.77526 2.6005,14.38392 -2.9311,25.82601 l -21.1487,43.74535 -34.1172,-16.49397 -8.8035,18.20979 c -2.4961,5.16294 -2.7325,8.23348 -0.7091,9.21165 2.0232,0.97817 5.6321,-3.90497 10.8266,-14.64946 l 28.0472,13.55946 -4.9077,10.15144 c -6.2738,12.97707 -12.1214,20.22093 -17.5428,21.73159 -5.4216,1.51062 -14.8301,-0.97214 -28.2258,-7.44828 -11.5817,-5.59919 -18.6312,-10.51358 -21.1484,-14.74319 -3.4381,-5.70771 -2.543,-13.96868 2.6851,-24.78294 z m 51.3646,-35.20581 6.07,2.93451 7.994,-16.53533 c 1.6527,-3.41862 1.4674,-5.61705 -0.5558,-6.59529 -2.0234,-0.9781 -3.8615,0.24217 -5.5142,3.66078 z"
         id="path3114"
         style="font-size:238.0644989px;font-style:normal;font-variant:normal;font-weight:bold;font-stretch:normal;text-align:start;line-height:125%;writing-mode:lr-tb;text-anchor:start;fill:#014c74;fill-opacity:1;font-family:Kenyan Coffee" />
      <path
         d="m 1856.6397,706.13885 66.0454,-111.6557 26.9134,15.91952 -2.5448,4.30215 c 6.0263,-1.20724 11.3739,-0.43004 16.043,2.33163 8.204,4.85287 11.6096,11.72931 10.2168,20.62933 -0.8153,5.64036 -3.9058,12.99609 -9.2714,22.06723 -0.1974,0.33355 -0.3749,0.6337 -0.5326,0.90045 l -47.6402,80.54018 -26.8134,-15.86035 46.1607,-78.03892 c 4.1031,-6.93674 5.2073,-11.01056 3.3125,-12.22148 -1.7343,-1.02572 -4.5346,1.72968 -8.401,8.2662 -0.1579,0.26686 -0.296,0.50031 -0.4142,0.70035 l -46.1607,78.03893 z"
         id="path3116"
         style="font-size:238.0644989px;font-style:normal;font-variant:normal;font-weight:bold;font-stretch:normal;text-align:start;line-height:125%;writing-mode:lr-tb;text-anchor:start;fill:#014c74;fill-opacity:1;font-family:Kenyan Coffee" />
      <path
         d="m 1981.4281,659.51659 14.3715,-20.73019 5.9229,4.10615 23.6435,-34.10451 25.4112,17.61669 -23.6435,34.1045 9.171,6.3579 -14.3715,20.73019 -9.171,-6.3579 -39.0746,56.36318 c -2.6933,3.88493 -3.81,6.48184 -3.3501,7.79077 0.4599,1.30891 2.8233,3.44247 7.0904,6.40066 l -15.0338,21.6855 -8.5978,-5.96053 c -10.6994,-7.41757 -16.2994,-14.50588 -16.7998,-21.26497 -0.5157,-5.921 3.0235,-14.35859 10.6177,-25.3128 l 39.7368,-57.31849 z"
         id="path3118"
         style="font-size:238.0644989px;font-style:normal;font-variant:normal;font-weight:bold;font-stretch:normal;text-align:start;line-height:125%;writing-mode:lr-tb;text-anchor:start;fill:#014c74;fill-opacity:1;font-family:Kenyan Coffee" />
      <path
         d="m 2001.5303,802.94789 90.0525,-102.07438 c 9.6383,-10.92502 17.6372,-16.68262 23.9968,-17.27283 6.3593,-0.58997 14.9434,3.88291 25.7525,13.41867 13.3075,11.74049 20.8144,20.27507 22.5206,25.60377 2.4102,7.81038 -1.9215,17.99166 -12.9953,30.54388 l -90.0525,102.07437 -26.5864,-23.45516 22.071,-25.01738 -6.1018,-5.38315 -22.071,25.01737 z m 114.9265,-77.02965 -46.4284,52.97795 6.1018,5.38315 46.7771,-52.67033 c 3.4861,-3.95157 4.2122,-6.82458 2.1784,-8.61904 -2.2665,-1.99938 -5.1428,-1.02329 -8.6289,2.92827 z"
         id="path3120"
         style="font-size:238.0644989px;font-style:normal;font-variant:normal;font-weight:bold;font-stretch:normal;text-align:start;line-height:125%;writing-mode:lr-tb;text-anchor:start;fill:#014c74;fill-opacity:1;font-family:Kenyan Coffee" />
      <path
         d="m 2141.626,793.22338 c 8.256,-7.84908 15.1974,-11.93553 20.8242,-12.25936 5.6266,-0.32368 12.3378,3.6144 20.1337,11.81425 7.5286,7.91916 12.1657,13.13409 13.9113,15.6448 5.135,7.20089 6.7596,13.40858 4.8739,18.62311 -1.5351,4.34642 -5.6444,9.69664 -12.3278,16.0507 l -10.6992,10.17186 -21.3048,-22.40937 9.3513,-8.89037 c 2.7519,-2.61635 3.3537,-4.73891 1.8053,-6.3677 -1.5486,-1.62871 -3.9796,-0.86792 -7.2932,2.28238 -4.2686,4.0581 -6.6891,6.57323 -7.2618,7.54539 -0.8702,1.89656 -0.6807,5.24504 0.5684,10.04545 l 3.9116,14.40547 c 1.2913,5.29484 2.0484,8.95915 2.2711,10.99292 0.3358,4.06476 -0.493,7.57937 -2.4864,10.54382 -1.9935,2.96442 -8.41,9.59931 -19.2495,19.90468 -10.3342,9.82475 -18.4525,14.3885 -24.3548,13.69127 -5.2506,-0.4616 -12.8684,-5.94369 -22.8533,-16.44629 -9.5044,-9.99719 -14.523,-17.46915 -15.0558,-22.41593 -0.8844,-6.21641 3.4473,-13.86323 12.9952,-22.94049 l 13.9848,-13.2955 21.3048,22.40937 c -1.1233,1.06792 -2.9346,2.78993 -5.4338,5.16603 -2.4994,2.3761 -4.3107,4.09811 -5.4339,5.16602 -3.7069,3.5241 -4.786,6.10053 -3.2375,7.72929 1.5484,1.62874 4.3446,0.52088 8.3884,-3.32359 l 4.128,-3.92458 c 2.8643,-2.72318 4.4885,-5.17621 4.8726,-7.35909 0.1455,-1.4215 -0.3317,-4.22911 -1.4316,-8.42282 l -4.7137,-18.45462 c -1.5529,-5.79474 -1.4016,-10.69683 0.4538,-14.70628 1.4428,-2.86867 4.6916,-6.70583 9.7464,-11.51149 1.1232,-1.06785 2.7239,-2.58963 4.802,-4.56532 2.0836,-2.1947 3.687,-3.82603 4.8103,-4.89401 z"
         id="path3122"
         style="font-size:238.0644989px;font-style:normal;font-variant:normal;font-weight:bold;font-stretch:normal;text-align:start;line-height:125%;writing-mode:lr-tb;text-anchor:start;fill:#014c74;fill-opacity:1;font-family:Kenyan Coffee" />
      <path
         d="m 2199.564,855.25141 c 8.8603,-7.15997 16.1077,-10.67517 21.7423,-10.54561 5.6344,0.12969 12.0073,4.59455 19.1188,13.39457 6.8676,8.49877 11.0705,14.0696 12.6086,16.71251 4.5394,7.59038 5.6597,13.90859 3.361,18.95465 -1.8796,4.20894 -6.4057,9.2115 -13.5782,15.00771 l -11.4823,9.27882 -19.4344,-24.04956 10.0357,-8.10983 c 2.9534,-2.38665 3.7238,-4.45397 2.3114,-6.20196 -1.4126,-1.74793 -3.897,-1.18503 -7.4531,1.68868 -4.5809,3.70182 -7.1959,6.01422 -7.8448,6.9372 -1.0199,1.82046 -1.1002,5.17333 -0.241,10.05863 l 2.7408,14.6733 c 0.8615,5.38151 1.3215,9.09481 1.3801,11.13991 0.01,4.0786 -1.1008,7.5152 -3.326,10.30981 -2.2254,2.79457 -9.1545,8.89216 -20.7874,18.29278 -11.0906,8.96217 -19.5495,12.85852 -25.3766,11.68905 -5.1965,-0.88221 -12.3489,-6.95895 -21.4572,-18.23026 -8.67,-10.72889 -13.0717,-18.58013 -13.2051,-23.55372 -0.3818,-6.26738 4.5507,-13.54123 14.7974,-21.82155 l 15.0083,-12.12822 19.4344,24.04956 c -1.2055,0.97415 -3.1494,2.54498 -5.8316,4.71247 -2.6822,2.16749 -4.6261,3.73831 -5.8315,4.71247 -3.9782,3.2147 -5.261,5.69604 -3.8484,7.44401 1.4125,1.74795 4.2886,0.86845 8.6284,-2.63849 l 4.4302,-3.58002 c 3.0739,-2.4841 4.8901,-4.79861 5.4484,-6.94355 0.2593,-1.40521 0.01,-4.24209 -0.7498,-8.51065 l -3.2149,-18.77383 c -1.082,-5.90083 -0.5372,-10.77489 1.6346,-14.6222 1.6687,-2.7434 5.2155,-6.30697 10.6403,-10.69071 1.2054,-0.9741 2.9232,-2.36227 5.1534,-4.16451 2.2533,-2.02009 3.9826,-3.51725 5.1882,-4.49146 z"
         id="path3124"
         style="font-size:238.0644989px;font-style:normal;font-variant:normal;font-weight:bold;font-stretch:normal;text-align:start;line-height:125%;writing-mode:lr-tb;text-anchor:start;fill:#014c74;fill-opacity:1;font-family:Kenyan Coffee" />
      <path
         d="m 2191.6127,963.49605 57.6117,-39.31063 c 12.3544,-8.42988 21.2407,-12.07756 26.6589,-10.94304 5.4179,1.13464 12.4075,7.9752 20.9686,20.52169 7.5125,11.01026 11.1578,19.17113 10.9357,24.48264 -0.3414,6.23708 -5.761,12.93724 -16.259,20.10051 l -59.5321,40.62098 c -11.3943,7.7747 -20.1245,10.4481 -26.1906,8.0201 -4.4681,-1.7359 -10.8079,-8.6211 -19.0194,-20.6555 -7.0759,-10.37013 -10.5231,-18.10324 -10.3416,-23.19938 0.1259,-6.27774 5.1818,-12.82353 15.1678,-19.63737 z m 21.0765,23.0515 c -3.5208,2.4023 -4.6478,4.53164 -3.3811,6.38803 1.354,1.98438 4.5915,1.22945 9.7126,-2.26481 l 51.3704,-35.05197 c 4.5448,-3.10115 6.1621,-5.61193 4.8519,-7.53234 -10e-5,2e-5 -0.022,-0.032 -0.066,-0.096 -1.2668,-1.85635 -5.2929,-0.46958 -12.0781,4.16031 z"
         id="path3126"
         style="font-size:238.0644989px;font-style:normal;font-variant:normal;font-weight:bold;font-stretch:normal;text-align:start;line-height:125%;writing-mode:lr-tb;text-anchor:start;fill:#014c74;fill-opacity:1;font-family:Kenyan Coffee" />
      <path
         d="m 2235.0266,1029.9319 65.1539,-37.10033 c 11.4481,-6.51886 19.9196,-8.71203 25.4146,-6.57951 4.4762,1.91 9.9547,8.55541 16.4354,19.93624 0.1532,0.2694 0.3258,0.5725 0.5177,0.9091 6.7488,11.8523 10.091,20.0709 10.0266,24.6557 -0.2509,6.9204 -5.8984,13.5249 -16.9424,19.8138 l -18.3845,10.4686 -15.3003,-26.8697 13.6368,-7.7652 c 4.3772,-2.4925 6.029,-4.6815 4.9554,-6.5671 -1e-4,0 -0.019,-0.034 -0.057,-0.101 -1.1122,-1.9529 -3.4865,-1.8941 -7.1228,0.1766 -0.2022,0.1151 -0.4379,0.2493 -0.7071,0.4027 l -2.9294,1.668 -52.1231,29.6803 c -5.2528,2.991 -7.3231,5.463 -6.211,7.4159 1.112,1.9529 4.2944,1.4339 9.5471,-1.5571 l 23.1322,-13.1721 15.3002,26.8697 -28.8899,16.4507 c -11.3136,6.4421 -19.9717,8.0727 -25.9744,4.8917 -4.178,-2.1691 -9.6798,-9.2471 -16.5055,-21.234 -6.1355,-10.7748 -9.0409,-18.6178 -8.7162,-23.5291 0.3274,-6.7856 5.5755,-13.0736 15.7442,-18.8639 z"
         id="path3128"
         style="font-size:238.0644989px;font-style:normal;font-variant:normal;font-weight:bold;font-stretch:normal;text-align:start;line-height:125%;writing-mode:lr-tb;text-anchor:start;fill:#014c74;fill-opacity:1;font-family:Kenyan Coffee" />
      <path
         d="m 2249.8079,1111.1281 116.5881,-56.8876 13.6102,27.8934 -116.5881,56.8876 z m 133.5122,-65.1454 20.3715,-9.9401 13.6102,27.8934 -20.3715,9.94 z"
         id="path3130"
         style="font-size:238.0644989px;font-style:normal;font-variant:normal;font-weight:bold;font-stretch:normal;text-align:start;line-height:125%;writing-mode:lr-tb;text-anchor:start;fill:#014c74;fill-opacity:1;font-family:Kenyan Coffee" />
      <path
         d="m 2295.1281,1138.9806 c 2.0801,-0.8504 5.308,-2.1702 9.6837,-3.9591 4.3756,-1.789 7.6035,-3.1087 9.6837,-3.9592 8.9664,-3.6659 16.1431,-4.2349 21.5302,-1.7071 5.3869,2.5278 9.884,8.2032 13.4914,17.0261 l 4.0471,9.8989 18.9371,-7.7423 c 5.1645,-2.1116 7.3216,-4.2075 6.4712,-6.2877 -0.8212,-2.0084 -6.3606,-0.9158 -16.6181,3.278 -0.3587,0.1466 -0.7174,0.2933 -1.076,0.4399 l -11.9214,-29.1588 10.3293,-4.2231 c 13.3419,-5.4548 22.5841,-6.9102 27.7268,-4.3662 5.1423,2.5441 10.4996,10.6306 16.0719,24.2595 4.8682,11.9074 6.8177,20.3616 5.8485,25.3626 -1.3186,6.3996 -7.5012,11.8576 -18.5477,16.374 l -95.8689,39.1957 -13.1532,-32.1715 c -4.927,-12.0509 -6.9124,-20.4904 -5.9561,-25.3186 1.2598,-6.5431 7.7,-12.1901 19.3205,-16.9411 z m 16.9785,27.0913 c -5.1647,2.1115 -6.9112,5.2116 -5.2395,9.3003 l 22.0574,-9.0181 c -1.6717,-4.0887 -5.4485,-4.9306 -11.3304,-2.5258 z"
         id="path3132"
         style="font-size:238.0644989px;font-style:normal;font-variant:normal;font-weight:bold;font-stretch:normal;text-align:start;line-height:125%;writing-mode:lr-tb;text-anchor:start;fill:#014c74;fill-opacity:1;font-family:Kenyan Coffee" />
      <path
         d="m 2396.4203,1187.7196 23.9758,-7.8384 2.2396,6.8502 39.444,-12.8955 9.6084,29.3897 -39.444,12.8955 3.4677,10.6069 -23.9759,7.8384 -3.4677,-10.6068 -65.1877,21.3119 c -4.4932,1.4689 -6.9519,2.8638 -7.3761,4.1847 -0.4242,1.3209 0.1704,4.4489 1.7839,9.3841 l -25.0807,8.1996 -3.251,-9.9439 c -4.0457,-12.3746 -4.2263,-21.4063 -0.542,-27.095 3.1658,-5.0301 11.0834,-9.6161 23.7527,-13.758 l 66.2925,-21.6731 z"
         id="path3134"
         style="font-size:238.0644989px;font-style:normal;font-variant:normal;font-weight:bold;font-stretch:normal;text-align:start;line-height:125%;writing-mode:lr-tb;text-anchor:start;fill:#014c74;fill-opacity:1;font-family:Kenyan Coffee" />
      <path
         d="m 2315.4337,1277.9115 125.2546,-33.7676 8.0788,29.9668 -125.2546,33.7676 z m 143.4368,-38.6694 21.8858,-5.9002 8.0789,29.9668 -21.8859,5.9002 z"
         id="path3136"
         style="font-size:238.0644989px;font-style:normal;font-variant:normal;font-weight:bold;font-stretch:normal;text-align:start;line-height:125%;writing-mode:lr-tb;text-anchor:start;fill:#014c74;fill-opacity:1;font-family:Kenyan Coffee" />
      <path
         d="m 2353.5839,1313.5399 68.3669,-13.7986 c 14.6608,-2.959 24.2661,-2.862 28.816,0.2912 4.5496,3.1532 8.327,12.1742 11.3322,27.0629 2.6369,13.0657 2.8198,22.0018 0.5487,26.8084 -2.7411,5.6129 -10.3406,9.6765 -22.7984,12.191 l -70.6457,14.2585 c -13.5215,2.729 -22.604,1.7951 -27.2475,-2.8016 -3.4406,-3.3376 -6.6021,-12.1469 -9.4845,-26.4279 -2.4837,-12.3061 -2.6506,-20.7711 -0.5006,-25.395 2.5583,-5.7342 9.7626,-9.7972 21.6129,-12.1889 z m 10.4473,29.4354 c -4.178,0.8432 -6.0447,2.3663 -5.6,4.5693 0.4752,2.3548 3.7514,2.9189 9.8285,1.6924 l 60.9604,-12.3037 c 5.3933,-1.0886 7.86,-2.7723 7.4002,-5.0512 -1e-4,0 -0.01,-0.038 -0.023,-0.114 -0.4448,-2.2029 -4.6931,-2.4918 -12.7451,-0.8666 z"
         id="path3138"
         style="font-size:238.0644989px;font-style:normal;font-variant:normal;font-weight:bold;font-stretch:normal;text-align:start;line-height:125%;writing-mode:lr-tb;text-anchor:start;fill:#014c74;fill-opacity:1;font-family:Kenyan Coffee" />
      <path
         d="m 2341.7332,1395.8863 128.8641,-14.9339 3.5997,31.0613 -4.9652,0.5754 c 4.6061,4.069 7.2215,8.7978 7.8461,14.1864 1.0972,9.4685 -2.3193,16.3395 -10.2494,20.6132 -4.9849,2.762 -12.7119,4.7497 -23.1811,5.963 -0.385,0.044 -0.7314,0.085 -1.0392,0.1204 l -92.953,10.7723 -3.5863,-30.9459 90.0663,-10.4377 c 8.0058,-0.9278 11.9178,-2.5124 11.7362,-4.7537 -0.232,-2.0015 -4.12,-2.5651 -11.6639,-1.6908 -0.308,0.036 -0.5775,0.067 -0.8083,0.094 l -90.0663,10.4377 z"
         id="path3140"
         style="font-size:238.0644989px;font-style:normal;font-variant:normal;font-weight:bold;font-stretch:normal;text-align:start;line-height:125%;writing-mode:lr-tb;text-anchor:start;fill:#014c74;fill-opacity:1;font-family:Kenyan Coffee" />
    </g>
    <path
       d="m 1658.5957,996 a 68.595741,68.595741 0 1 1 -137.1914,0 68.595741,68.595741 0 1 1 137.1914,0 z"
       transform="matrix(1.516129,0,0,1.516129,-806.64516,-482.06452)"
       id="path3704"
       style="fill:#014c74;fill-opacity:1;fill-rule:nonzero;stroke:none" />
    <path
       d="m 4404,364 a 948,948 0 1 1 -1896,0 948,948 0 1 1 1896,0 z"
       transform="translate(-2052,1176)"
       id="path3712"
       style="fill:none;stroke:#000000;stroke-width:50;stroke-miterlimit:4;stroke-opacity:0;stroke-dasharray:none" />
  </g>
</svg>
